<svg width="24" height="24" viewBox="0 0 24 24" fill="none" xmlns="http://www.w3.org/2000/svg">
<g clip-path="url(#clip0_131_14)">
<path d="M19.92 14.7659V13.6503C19.92 11.0717 18.5833 8.35935 16.7823 6.02251C15.1932 3.96062 13.3388 2.31566 12 1.44C10.6612 2.31566 8.80682 3.96062 7.2177 6.02251C5.41665 8.35935 4.08002 11.0717 4.08002 13.6503V14.7659C4.08002 19.14 7.62592 22.6858 12 22.6858C16.3741 22.6858 19.92 19.14 19.92 14.7659Z" stroke="#858585" stroke-width="2.18"/>
<path d="M17.5779 13.6504V14.766C17.5779 16.917 16.3601 18.7837 14.5764 19.7142C13.7186 20.1616 13.2897 20.3854 12.6451 19.9945C12.0004 19.6037 12.0004 18.9579 12.0004 17.6662V9.45494C12.0004 7.51094 12.0004 6.53899 12.9191 6.23544C13.8378 5.93194 14.3498 6.62232 15.3739 8.00304C16.5878 9.63965 17.5779 11.6549 17.5779 13.6504Z" fill="#858585"/>
</g>
<defs>
<clipPath id="clip0_131_14">
<rect width="18.72" height="24" fill="white" transform="translate(2.64001)"/>
</clipPath>
</defs>
</svg>
