<svg width="24" height="24" viewBox="0 0 24 24" fill="none" xmlns="http://www.w3.org/2000/svg">
<path d="M2.11768 22.8523C2.11768 22.2516 2.60464 21.7647 3.20534 21.7647H20.6081C21.2088 21.7647 21.6957 22.2516 21.6957 22.8523C21.6957 23.4531 21.2088 23.94 20.6081 23.94H3.20535C2.60464 23.94 2.11768 23.4531 2.11768 22.8523Z" fill="#858585"/>
<path fill-rule="evenodd" clip-rule="evenodd" d="M17.0265 2.49391C16.6017 2.06915 15.9131 2.06915 15.4883 2.49391L14.5326 3.44959L18.4328 7.34974L19.3885 6.39407C19.8132 5.96932 19.8132 5.28061 19.3885 4.85586L17.0265 2.49391ZM6.37509 11.6071L12.9944 4.98781L16.8946 8.88795L10.2752 15.5073L6.37509 11.6071ZM4.83686 13.1454L4.29299 13.6892V17.5894H8.1932L8.73706 17.0455L4.83686 13.1454ZM13.9501 0.955717C15.2244 -0.318572 17.2904 -0.318572 18.5647 0.955717L20.9267 3.31767C22.201 4.59196 22.201 6.65798 20.9266 7.93224L9.73137 19.1276C9.32342 19.5355 8.7701 19.7647 8.1932 19.7647H4.29299C3.09161 19.7647 2.11768 18.7908 2.11768 17.5894V13.6892C2.11768 13.1122 2.34686 12.5589 2.75481 12.151L13.9501 0.955717Z" fill="#858585"/>
</svg>
