<svg width="24" height="24" viewBox="0 0 24 24" fill="none" xmlns="http://www.w3.org/2000/svg">
<path fill-rule="evenodd" clip-rule="evenodd" d="M1.20001 12.5C1.20001 11.8097 1.73727 11.25 2.40001 11.25H21.6C22.2628 11.25 22.8 11.8097 22.8 12.5V18.75C22.8 21.5114 20.651 23.75 18 23.75H6.00003C3.34905 23.75 1.20001 21.5114 1.20001 18.75V12.5ZM4.20003 13.75C3.86866 13.75 3.59999 14.0299 3.59999 14.375V18.75C3.59999 20.1307 4.6745 21.25 6.00003 21.25H18C19.3255 21.25 20.4 20.1307 20.4 18.75V14.375C20.4 14.0299 20.1314 13.75 19.8 13.75H4.20003Z" fill="#858585"/>
<path fill-rule="evenodd" clip-rule="evenodd" d="M20.4 7.49995H3.6C2.93726 7.49995 2.4 8.05965 2.4 8.75V10C2.4 10.6903 2.93726 11.25 3.6 11.25H20.4C21.0627 11.25 21.6 10.6903 21.6 10V8.75C21.6 8.05965 21.0627 7.49995 20.4 7.49995ZM3.6 5C1.61177 5 0 6.6789 0 8.75V10C0 12.071 1.61177 13.75 3.6 13.75H20.4C22.3883 13.75 24 12.071 24 10V8.75C24 6.6789 22.3883 5 20.4 5H3.6Z" fill="#858585"/>
<path d="M10.8 5H13.2V23.75H10.8V5Z" fill="#858585"/>
<path fill-rule="evenodd" clip-rule="evenodd" d="M9.60001 7.5C7.61185 7.5 6.00006 5.8211 6.00006 3.75002C6.00006 1.67894 7.61185 0 9.60001 0C10.522 0 11.3631 0.361072 12.0001 0.954865C12.637 0.361072 13.478 0 14.4 0C16.3883 0 18.0001 1.67894 18.0001 3.75002C18.0001 5.8211 16.3883 7.5 14.4 7.5H9.60001ZM9.60001 2.50001C10.2628 2.50001 10.8001 3.05965 10.8001 3.75002V5.00005H9.60001C8.93728 5.00005 8.40006 4.44036 8.40006 3.75002C8.40006 3.05965 8.93728 2.50001 9.60001 2.50001ZM13.2001 5.00005H14.4C15.0628 5.00005 15.6001 4.44036 15.6001 3.75002C15.6001 3.05965 15.0628 2.50001 14.4 2.50001C13.7373 2.50001 13.2001 3.05965 13.2001 3.75002V5.00005Z" fill="#858585"/>
</svg>
