<svg width="24" height="24" viewBox="0 0 24 24" fill="none" xmlns="http://www.w3.org/2000/svg">
<path d="M3.85026 14.5526C5.15458 14.5526 6.21194 13.4953 6.21194 12.1909C6.21194 10.8866 5.15458 9.82925 3.85026 9.82925C2.54593 9.82925 1.48857 10.8866 1.48857 12.1909C1.48857 13.4953 2.54593 14.5526 3.85026 14.5526Z" fill="#858585"/>
<path d="M12.1164 14.5526C13.4207 14.5526 14.4781 13.4953 14.4781 12.1909C14.4781 10.8866 13.4207 9.82925 12.1164 9.82925C10.8121 9.82925 9.75471 10.8866 9.75471 12.1909C9.75471 13.4953 10.8121 14.5526 12.1164 14.5526Z" fill="#858585"/>
<path d="M20.3826 14.5527C21.6869 14.5527 22.7443 13.4953 22.7443 12.191C22.7443 10.8867 21.6869 9.8293 20.3826 9.8293C19.0783 9.8293 18.0209 10.8867 18.0209 12.191C18.0209 13.4953 19.0783 14.5527 20.3826 14.5527Z" fill="#858585"/>
</svg>
