<svg width="24" height="24" viewBox="0 0 24 24" fill="none" xmlns="http://www.w3.org/2000/svg">
<g clip-path="url(#clip0_203_6)">
<path fill-rule="evenodd" clip-rule="evenodd" d="M11.9999 13.12C7.77308 13.12 4.34659 16.5466 4.34659 20.7734V22.9601C4.34659 23.5639 3.85708 24.0533 3.25325 24.0533C2.64942 24.0533 2.15991 23.5639 2.15991 22.9601V20.7734C2.15991 15.3389 6.56544 10.9333 11.9999 10.9333C17.4344 10.9333 21.8399 15.3389 21.8399 20.7734V22.9601C21.8399 23.5639 21.3504 24.0533 20.7465 24.0533C20.1427 24.0533 19.6532 23.5639 19.6532 22.9601V20.7734C19.6532 16.5466 16.2267 13.12 11.9999 13.12Z" fill="#858585"/>
<path fill-rule="evenodd" clip-rule="evenodd" d="M11.9999 10.9333C14.4152 10.9333 16.3732 8.97533 16.3732 6.56002C16.3732 4.14468 14.4152 2.18667 11.9999 2.18667C9.58461 2.18667 7.6266 4.14468 7.6266 6.56002C7.6266 8.97533 9.58461 10.9333 11.9999 10.9333ZM11.9999 13.12C15.6229 13.12 18.5599 10.183 18.5599 6.56002C18.5599 2.93701 15.6229 0 11.9999 0C8.37693 0 5.43994 2.93701 5.43994 6.56002C5.43994 10.183 8.37693 13.12 11.9999 13.12Z" fill="#858585"/>
</g>
<defs>
<clipPath id="clip0_203_6">
<rect width="24" height="24" fill="white"/>
</clipPath>
</defs>
</svg>
