<svg width="64" height="64" viewBox="0 0 64 64" fill="none" xmlns="http://www.w3.org/2000/svg">
<g clip-path="url(#clip0_175_59)">
<path fill-rule="evenodd" clip-rule="evenodd" d="M17.5371 51.8461C22.9532 56.246 29.21 58.7535 35.8828 58.7535C45.8058 58.7535 54.8137 53.1919 61.4984 44.1334C58.6759 40.3098 55.4406 37.1071 51.8933 34.6858L46.1979 37.529C47.422 39.4334 48.135 41.7002 48.135 44.1334C48.135 50.8924 42.6506 56.3708 35.8828 56.3708C30.6242 56.3708 26.141 53.0612 24.403 48.4146L17.5371 51.8431V51.8461ZM31.667 44.79C31.8036 45.6783 32.2196 46.5043 32.8643 47.149C33.6635 47.9482 34.7508 48.3968 35.8828 48.3938C38.2387 48.3938 40.1491 46.4864 40.1491 44.1334C40.1491 42.9777 39.6886 41.929 38.9399 41.1595L31.6699 44.79H31.667Z" fill="white"/>
<path d="M19.0882 44.038L60.6014 24.082L51.4776 5.10352L46.7656 21.8746L41.103 10.0918L36.3881 26.8628L30.7254 15.08L26.0105 31.8511L20.3479 20.0682L15.633 36.8393L9.97035 25.0565L2.36768 52.0774L12.7452 47.0891L19.0882 44.0409V44.038Z" fill="white"/>
</g>
<defs>
<clipPath id="clip0_175_59">
<rect width="59.1279" height="53.6495" fill="white" transform="translate(2.36719 5.10376)"/>
</clipPath>
</defs>
</svg>
