<svg width="64" height="64" viewBox="0 0 64 64" fill="none" xmlns="http://www.w3.org/2000/svg">
<g clip-path="url(#clip0_711_736)">
<path d="M6.23439 51.8435L6.85149 49.4127C6.89363 49.2467 6.86163 49.1213 6.74389 49.0914C6.63564 49.0639 6.60661 49.1289 6.49489 49.1915C6.12844 49.397 5.81848 49.3752 5.46308 49.3869C4.88001 49.4062 4.30918 49.6431 3.71596 49.8484C3.55335 49.9046 2.89413 50.0213 2.906 50.3517C2.9114 50.5019 2.91281 50.6168 2.92272 50.7676C2.93503 50.9551 2.92087 51.1409 2.94105 51.3276C2.95413 51.4486 2.97413 51.7425 2.95946 51.8648C2.92107 52.1849 2.99358 52.5035 2.99536 52.8148C2.99793 53.2642 2.98378 53.7483 3.01716 54.1892C3.05958 54.7497 3.08437 55.361 3.07579 55.9454C3.07365 56.0915 3.09228 56.2437 3.07676 56.3933C3.07398 56.42 3.01708 56.6584 3.04888 56.5332C3.16357 56.0814 3.24396 55.6292 3.36018 55.1715C3.54511 54.443 3.6743 53.6767 3.91088 52.9721C3.96174 52.8206 3.99453 52.3973 4.04367 52.5092C4.0635 52.5544 4.05927 52.6092 4.08431 52.6502C4.10575 52.6853 4.1148 52.9667 4.10625 53.038C4.06661 53.3685 4.18963 53.7392 4.118 54.0832C4.07071 54.3103 4.1363 54.5799 4.10035 54.8301C4.04363 55.225 4.12817 55.5428 4.11274 55.9179C4.09747 56.2895 4.1844 56.5585 4.21937 56.9055C4.25948 57.3036 4.28393 57.6735 4.3036 58.0867C4.30523 58.121 4.29698 58.7633 4.33372 58.653C4.40832 58.4291 4.45469 58.1765 4.51293 57.947C4.81058 56.7746 5.15038 55.5959 5.55025 54.4631C5.84199 53.6367 6.01747 52.698 6.23439 51.8435Z" fill="#E7F0FF"/>
<path fill-rule="evenodd" clip-rule="evenodd" d="M17.5371 51.8479C22.9532 56.2478 29.21 58.7553 35.8828 58.7553C45.8057 58.7553 54.8137 53.1937 61.4983 44.1353C58.6759 40.3116 55.4405 37.1089 51.8932 34.6876L46.1979 37.5308C47.4219 39.4352 48.135 41.702 48.135 44.1353C48.135 50.8942 42.6506 56.3726 35.8828 56.3726C30.6242 56.3726 26.141 53.063 24.403 48.4164L17.5371 51.8449V51.8479ZM31.667 44.7918C31.8036 45.6802 32.2196 46.5061 32.8643 47.1508C33.6634 47.95 34.7508 48.3986 35.8828 48.3956C38.2387 48.3956 40.149 46.4883 40.149 44.1353C40.149 42.9796 39.6885 41.9308 38.9399 41.1613L31.6699 44.7918H31.667Z" fill="#2BAD72"/>
<path d="M45.9016 34.1303C46.0794 33.3606 46.2631 32.5071 46.5863 31.7904C46.4812 31.4919 45.2286 31.6196 45.0103 31.5922C44.6726 31.5497 44.2976 31.6325 43.9593 31.66C43.5419 31.694 43.1417 31.7857 42.7308 31.8613C42.3516 31.931 42.0096 32.1158 41.6394 32.2107C41.1622 32.3329 40.7546 32.5054 40.3089 32.7128C39.2978 33.1833 38.1762 33.4857 37.3073 34.2251C37.1992 34.3171 36.699 34.6028 36.8265 34.7872C36.9162 34.9171 37.0102 35.0725 37.1229 35.1802C37.4462 35.4892 37.6782 35.9858 37.955 36.3423C38.1015 36.5309 38.2114 36.7462 38.3546 36.936C38.5201 37.1552 38.7267 37.3598 38.8752 37.5895C39.4195 38.4311 40.1445 39.1338 40.6145 40.0243C40.6789 40.1462 40.6708 40.3553 40.7293 40.1919C40.7675 40.0851 40.8271 39.9049 40.8862 39.8089C40.9533 39.6998 40.9764 39.4865 41.0069 39.3597C41.0554 39.1581 41.1481 38.964 41.174 38.7581C41.2001 38.5506 41.19 38.2868 41.2606 38.0897C41.2961 37.9905 41.3418 38.2841 41.3768 38.3834C41.515 38.776 41.575 39.1841 41.7151 39.5822C41.8466 39.9556 41.8844 40.36 42.0152 40.7316C42.1657 41.1591 42.2627 41.6286 42.3808 42.0672C42.4535 42.3368 42.5627 42.5916 42.6496 42.857C42.7464 43.1527 42.7635 43.471 42.8106 43.7765C42.8494 44.0275 42.8487 44.3594 42.9401 44.5932C42.9678 44.664 43.0918 45.0668 43.0954 45.0476C43.1726 44.6325 43.1134 44.1973 43.1663 43.7768C43.2373 43.2128 43.2635 42.6506 43.3343 42.0883C43.4024 41.5467 43.4272 40.996 43.4958 40.451C43.5631 39.9152 43.4537 39.3716 43.5213 38.8336C43.6433 37.8637 43.723 36.8772 43.8456 35.9024C43.8471 35.8906 43.9315 36.102 43.9548 36.173C43.9929 36.2891 44.0401 36.4151 44.0677 36.5331C44.1548 36.9061 44.3052 37.2678 44.4286 37.6309C44.558 38.0117 44.757 38.3799 44.9202 38.7501C45.0232 38.9836 45.1507 39.2283 45.2091 39.4782C45.2371 39.598 45.3307 39.9384 45.3542 39.8176C45.4289 39.4324 45.3733 39.0154 45.4153 38.6246C45.4911 37.9189 45.5044 37.2094 45.5933 36.5027C45.6914 35.7226 45.7246 34.8965 45.9016 34.1303Z" fill="#E7F0FF"/>
<path d="M43.773 30.9119C41.609 30.6376 40.9362 28.0306 40.9362 26.1926C40.9362 25.7477 40.7807 25.3397 40.9654 24.9333C41.1211 24.5909 41.1545 24.1632 41.4328 23.8849C41.5504 23.7673 41.6365 23.5854 41.8223 23.5668C42.2853 23.5205 42.7516 23.4949 43.2147 23.4435C44.8817 23.2583 46.5401 23.2714 48.2197 23.2714C50.072 23.2714 51.9404 23.2004 53.7894 23.3169C55.1632 23.4034 56.5596 23.3299 57.9374 23.3299C58.4672 23.3299 59.0129 23.2909 59.5408 23.3331C59.9207 23.3635 60.0353 23.5609 60.2419 23.8265C60.38 24.004 60.5389 24.4546 60.5632 24.6736C60.6302 25.2767 60.6249 25.8729 60.6249 26.4815C60.6249 27.2282 60.4474 27.8684 60.0991 28.5263C59.5996 29.4697 58.5155 29.7765 57.5317 29.9609C56.2736 30.1968 54.7737 29.9349 53.877 31.0385C53.1699 31.9087 53.2051 32.9621 53.2051 34.0343C53.2051 34.603 53.278 35.2416 53.0883 35.787C53.0231 35.9745 52.958 36.1395 52.7702 36.2414C52.5981 36.3349 52.3483 36.5367 52.1665 36.579C51.1809 36.8082 50.3387 36.121 50.2288 35.1314C50.1874 34.7593 50.1163 34.448 49.9918 34.1057C49.8569 33.7347 49.6116 33.4297 49.4401 33.0866C49.2704 32.7473 48.9546 32.4836 48.7649 32.1518C48.5936 31.8519 48.3564 31.4905 48.0769 31.2755C47.8338 31.0885 47.7263 30.7542 47.4667 30.5744C47.132 30.3427 46.8765 30.2707 46.4605 30.2823C46.0405 30.2939 45.6715 30.4403 45.2725 30.5289C45.018 30.5855 44.795 30.7607 44.5585 30.8665C44.3344 30.9667 44.0113 30.9421 43.773 30.9119Z" fill="#E7F0FF"/>
<path d="M48.1802 31.3947C48.3232 31.3037 48.8443 31.2773 48.6749 31.2773C49.1049 31.2773 49.1276 30.9584 49.1276 30.5983C49.1276 30.2737 49.2737 29.5792 48.9725 29.3533C48.5604 29.0442 48.3816 29.005 47.8281 29.0138C47.2783 29.0225 46.6254 29.1119 46.1095 29.2988C45.3118 29.5878 44.6351 30.1539 43.9172 30.5983C42.7615 31.3137 41.6405 32.1251 40.4338 32.7528C39.1492 33.4212 37.7501 33.8867 36.3846 34.3541C34.7177 34.9246 33.0876 35.5994 31.4257 36.1859C29.3712 36.911 27.3586 37.7452 25.3099 38.4872C23.2209 39.2437 21.1005 39.9259 19.0684 40.8304C16.1644 42.1229 13.2844 43.6675 10.5381 45.2695C8.65628 46.3672 6.79736 47.5342 5.11394 48.9205C4.58708 49.3544 3.42449 50.0292 3.40369 50.8194C3.39674 51.0836 3.33999 51.5753 3.57136 51.7835C3.69866 51.8981 3.99491 51.6731 4.12049 51.6452C4.53617 51.5528 4.96032 51.363 5.32772 51.1589C5.7943 50.8997 6.29944 50.655 6.74035 50.3667C6.95984 50.2232 7.24213 50.1242 7.4781 50.0062C7.71602 49.8872 7.94112 49.6902 8.19489 49.6122C8.41998 49.5429 8.65827 49.4062 8.87396 49.3103C9.10337 49.2084 9.36953 49.1359 9.59075 49.0253C10.0671 48.7871 10.5592 48.7751 11.0411 48.6145C12.1069 48.2592 13.3241 48.1786 14.4574 48.1786C15.1846 48.1786 15.8397 47.9158 16.5323 47.7426C17.3177 47.5463 17.8114 47.0656 18.4941 46.6863C19.877 45.918 21.3929 45.3199 22.8871 44.7665C23.9595 44.3693 25.0748 43.8024 26.2237 43.8024C27.1679 43.8024 27.9791 43.9545 28.5124 43.0478C28.7461 42.6505 28.8426 42.0553 29.1705 41.7274C29.6193 41.2787 29.9517 40.8275 30.5664 40.5202C32.371 39.6179 34.3184 39.1447 36.2211 38.4788C37.0215 38.1987 37.6919 37.8408 38.3547 37.3135C39.0659 36.7477 39.8655 36.2051 40.5093 35.5613C41.0688 35.0018 41.7448 34.468 42.4165 34.0313C42.8619 33.7419 43.2984 33.3747 43.7873 33.1636C44.2312 32.9719 44.696 32.814 45.1286 32.5977C45.6861 32.319 46.3876 31.9579 46.9982 31.8223C47.2229 31.7723 47.3726 31.6729 47.5766 31.5791C47.775 31.488 47.9921 31.5144 48.1802 31.3947Z" fill="#E7F0FF"/>
<path d="M12.5093 37.1979C12.0932 37.9098 11.6909 38.5519 11.644 39.3976C11.0598 39.6897 10.1484 39.592 9.59597 39.97C9.19344 40.2454 8.89832 40.506 8.6168 40.9147C8.53095 41.0393 7.64067 42.4013 8.0617 42.3662C8.63405 42.3185 9.26083 42.0203 9.79939 41.8421C10.9458 41.4628 12.0863 41.0603 13.2403 40.7043C16.205 39.7899 19.3215 39.2172 22.3735 38.6805C25.0035 38.218 27.6543 37.8583 30.2516 37.2255C33.1477 36.52 36.011 35.5519 38.7435 34.3604C43.3066 32.3707 47.6889 29.6508 51.4521 26.3857C52.9052 25.1249 54.4555 23.7745 55.5549 22.1794C56.0626 21.4429 56.4161 20.6343 56.5341 19.7453C56.6674 18.7411 56.512 17.684 56.2031 16.725C55.9707 16.0034 55.5011 15.4505 55.086 14.8356C54.7593 14.3516 54.3527 13.9258 53.9069 13.5496C53.5079 13.213 53.0754 12.8674 52.576 12.6876C52.3095 12.5917 51.9514 12.6497 51.6727 12.6497C51.0039 12.6497 50.5973 13.1436 50.1833 13.5806C49.816 13.9683 49.6007 14.5321 49.3627 15.008C49.0321 15.6692 48.4184 16.2198 47.8491 16.6836C46.9125 17.4468 45.652 17.9685 44.4703 18.2007C43.5447 18.3825 42.6393 18.4506 41.6983 18.4868C41.352 18.5001 41.0361 18.6448 40.7019 18.6696C40.4131 18.6909 40.1125 18.8067 39.8192 18.8419C39.4484 18.8864 39.0624 18.8557 38.6884 18.8557C37.9575 18.8557 37.1957 18.793 36.468 18.8592C36.035 18.8985 35.7594 18.9904 35.3819 19.1936C35.1677 19.309 35.1039 19.3806 34.9441 19.5694C34.7747 19.7696 34.7586 20.0401 34.6062 20.2211C34.4667 20.3867 34.392 20.615 34.2959 20.8072C34.1734 21.0522 33.9571 21.2081 33.7649 21.4002C33.5369 21.6282 33.3682 21.8935 33.1443 22.1173C32.7578 22.5038 32.4188 22.9125 32.0617 23.3206C31.6025 23.8455 31.2277 24.4557 30.7585 24.9652C30.5198 25.2243 30.3087 25.5024 30.062 25.7582C29.8425 25.9858 29.6585 26.1086 29.4069 26.3029C29.1268 26.5194 28.8438 26.683 28.5243 26.8339C28.2843 26.9472 28.0967 26.7425 27.9003 26.6443C27.0631 26.2257 26.6153 25.2069 25.7178 24.8618C25.2739 24.691 25.0826 24.6938 24.6628 24.9514C24.2929 25.1784 24.0385 25.4968 23.7457 25.8065C23.3583 26.2162 23.232 26.8263 22.9975 27.3304C22.4359 28.5379 21.8875 29.6987 20.9806 30.6782C20.4 31.3051 19.6263 31.8339 18.8912 32.2607C18.2947 32.6071 17.9472 32.6331 17.2776 32.6331C16.5617 32.6331 15.8484 32.7717 15.2434 33.1606C14.5575 33.6015 14.0175 34.1239 13.6919 34.9017C13.3592 35.6965 12.9439 36.4547 12.5093 37.1979Z" fill="white"/>
<path d="M19.0877 44.0401L60.6009 24.0842L51.4771 5.10571L46.7651 21.8767L41.1025 10.0939L36.3876 26.865L30.7249 15.0822L26.01 31.8532L20.3474 20.0704L15.6325 36.8414L9.96986 25.0586L2.36719 52.0795L12.7447 47.0912L19.0877 44.043V44.0401Z" fill="#2BAD72"/>
<path d="M14.9861 36.0877C15.1172 35.8588 15.2458 35.5219 15.0891 35.2731C15.0891 35.217 14.9936 35.0798 15.009 35.026C15.0321 34.9451 15.1187 34.9225 15.1715 34.8727C15.2476 34.8008 15.3217 34.7285 15.3866 34.645C15.45 34.5634 15.432 34.4622 15.4701 34.3784C15.5094 34.292 15.6527 34.3096 15.7321 34.3006C15.9045 34.2812 16.0641 34.264 16.2378 34.264C16.4677 34.264 16.7642 34.2133 16.9837 34.2743C17.116 34.3111 17.2448 34.3426 17.375 34.3876C17.5854 34.4603 17.7651 34.6141 17.947 34.7377C18.1964 34.9071 18.4285 35.0634 18.7135 35.169C19.0294 35.286 19.3467 35.3932 19.6585 35.5202C20.0414 35.6762 20.3494 36.0146 20.2946 36.4469C20.261 36.7117 20.0971 36.9563 19.9594 37.1779C19.8973 37.2779 19.8428 37.3783 19.7946 37.4857C19.7522 37.5803 19.677 37.6513 19.631 37.7431C19.4355 38.1342 19.0276 38.2852 18.6197 38.3415C18.382 38.3743 18.137 38.3994 17.9012 38.4444C17.6243 38.4973 17.3353 38.5006 17.0615 38.568C16.8626 38.6169 16.6773 38.6575 16.4986 38.7648C16.3394 38.8603 16.1888 39.015 16.0581 39.1457C15.7915 39.4123 15.5839 39.6865 15.2333 39.8493C15.0029 39.9563 14.7136 40.0095 14.4622 40.0095C14.2879 40.0095 14.1119 40.0312 13.9565 39.9363C13.6259 39.7342 13.3799 39.2517 13.3799 38.8769C13.3799 38.1608 13.7539 37.596 14.2025 37.0658C14.4661 36.7543 14.7833 36.442 14.9861 36.0877Z" fill="white"/>
<path d="M35.2641 25.8803C35.4632 25.6882 35.6682 25.4641 35.9398 25.3901C36.1413 25.3229 36.3105 25.5854 36.4067 25.735C36.4919 25.8677 36.5678 25.9861 36.6401 26.1267C36.7709 26.381 36.9163 26.7082 37.1719 26.8608C37.506 27.0602 37.9675 26.9848 38.3339 26.9075C38.5227 26.8676 38.6822 26.7375 38.8708 26.7025C39.0281 26.6734 39.1615 26.6267 39.3066 26.5625C39.6434 26.4134 39.9477 26.1484 40.3234 26.0956C40.6364 26.0516 41.096 26.052 41.3687 26.2305C41.6582 26.4199 41.6592 26.6361 41.6592 26.949C41.6592 27.1204 41.5892 27.27 41.5892 27.4444C41.5892 27.5855 41.5523 27.7896 41.6411 27.9113C41.9314 28.3092 43.7896 28.4381 43.3063 29.2705C42.9662 29.8563 42.1877 29.9374 41.6229 30.1757C40.9947 30.4407 40.3463 30.6777 39.6853 30.8475C39.4395 30.9106 39.2049 31.008 38.9616 31.081C38.832 31.1199 38.5821 31.2253 38.4558 31.1225C38.2319 30.9402 38.395 30.4873 38.4843 30.2704C38.5364 30.144 38.7735 29.5921 38.5155 29.5921C38.133 29.5921 37.7968 29.6579 37.4325 29.7672C37.1009 29.8667 36.7947 30.1287 36.5467 30.3612C36.0843 30.7947 35.4298 31.0415 34.8296 31.2016C34.2148 31.3655 33.5474 31.3704 32.9517 31.5894C32.344 31.8128 31.8192 32.1685 31.2825 32.5219C30.8463 32.8091 30.3709 33.1872 29.8351 33.1872C29.7936 33.1872 29.6367 33.2107 29.6367 33.1522C29.6367 33.1164 29.6507 33.023 29.6627 32.99C29.706 32.8709 29.7858 32.746 29.8715 32.649C30.0332 32.4656 30.1562 32.261 30.302 32.0666C30.556 31.728 30.7897 31.3731 31.0504 31.0395C31.2016 30.8458 31.3797 30.6776 31.5263 30.4792C31.6834 30.2667 31.8742 30.0751 32.1138 29.9552C32.3943 29.815 32.713 29.7773 33.0009 29.6595C33.2123 29.5731 33.4302 29.5026 33.6403 29.4144C33.8818 29.3132 34.0935 29.1331 34.3056 28.9838C34.5866 28.7862 34.8187 28.5475 35.0631 28.3094C35.5422 27.8426 34.8017 27.3566 34.7751 26.8724C34.7525 26.4601 34.9793 26.1549 35.2641 25.8803Z" fill="white"/>
<path d="M44.0716 19.7209C44.2276 19.5244 44.4467 19.2634 44.666 19.0438C44.8525 18.8569 45.0106 19.0254 45.2734 19.0516C45.4602 19.0703 45.6513 19.1807 45.831 19.226C46.0646 19.2849 46.2954 19.2209 46.4908 19.1023C46.6564 19.0017 46.7799 18.8581 46.9306 18.74C47.154 18.5652 47.3787 18.406 47.5621 18.1915C47.8238 17.8852 48.1712 17.5327 48.5816 17.4029C48.6716 17.3744 48.875 17.3625 48.9696 17.3925C49.3845 17.5237 49.6428 17.8367 49.8618 18.1855C50.0093 18.4204 50.1619 18.6435 50.3488 18.8504C50.5408 19.0629 50.7231 19.1717 50.9771 19.3035C51.3089 19.4757 51.6756 19.4258 52.0437 19.4258H53.1763C53.8517 19.4258 54.5489 19.3868 55.2184 19.4735C55.6346 19.5273 56.0584 19.7028 56.3431 20.0042C56.6688 20.3488 56.8468 20.7782 57.1239 21.1565C57.5073 21.6801 57.9596 22.1089 58.4701 22.5175C58.9638 22.9127 59.4339 23.338 59.9184 23.7443C60.166 23.952 60.513 24.2009 60.4996 24.5448C60.4956 24.6478 60.4442 24.7484 60.4148 24.846C60.3571 25.0377 60.2449 25.1618 60.1603 25.3424C60.0956 25.4804 60.1054 25.5904 60.0692 25.7314C60.0435 25.8316 59.9541 25.8954 59.9341 25.9998C59.9113 26.1187 59.8192 26.2387 59.7362 26.3277C59.6464 26.424 59.5306 26.4799 59.422 26.5543C59.264 26.6626 59.1217 26.7888 58.9665 26.9001C58.5966 27.1656 58.173 27.3663 57.7522 27.5456C57.4054 27.6934 57.0728 27.8704 56.7233 28.0122C56.2875 28.189 55.838 28.3415 55.3928 28.4952C54.5356 28.791 53.7024 29.1343 52.8559 29.4552C52.0918 29.7448 51.3004 29.9411 50.5121 30.1588C50.0268 30.2928 49.5423 30.4223 49.0371 30.4659C48.9451 30.4738 47.9599 30.5584 47.9454 30.4271C47.9184 30.1836 48.1753 30.0091 48.2501 29.804C48.3982 29.3979 48.8814 29.0588 49.246 28.8425C49.6439 28.6065 50.0066 28.3435 50.4336 28.1464C50.8236 27.9663 51.262 27.8612 51.6746 27.7379C52.1761 27.5881 52.6783 27.4499 53.1763 27.2892C53.991 27.0264 54.8114 26.7335 55.4666 26.1816C55.6282 26.0455 55.9308 25.7317 55.7352 25.5048C55.6437 25.3987 55.5598 25.361 55.4258 25.2961C55.2034 25.1886 55.0519 25.0875 54.788 25.0875C54.525 25.0875 54.2466 25.1899 53.9963 25.2634C53.8071 25.3188 53.6081 25.2877 53.4151 25.3081C53.2482 25.3257 53.0968 25.3759 52.9375 25.4229C52.6032 25.5213 52.3103 25.7125 51.973 25.806C51.5191 25.9318 51.0149 25.8455 50.5483 25.879C50.0117 25.9176 49.4702 25.9347 48.935 25.9789C48.3514 26.027 48.0051 26.3188 47.6061 26.6974C47.2405 27.0443 46.8533 27.37 46.4876 27.717C46.1267 28.0595 45.701 28.4248 45.1885 28.534C44.7611 28.625 44.337 28.5968 43.902 28.6025C43.5382 28.6073 43.1477 28.7174 42.793 28.7904C42.31 28.8898 41.8168 28.9969 41.3289 29.0706C40.8978 29.1357 40.5866 29.0259 40.289 28.7307C40.0238 28.4676 40 28.126 40 27.7856C40 27.5533 40.0296 27.1991 40.2042 27.0134C40.2905 26.9218 40.3673 26.8824 40.4807 26.8167C40.6068 26.7435 40.6982 26.6066 40.82 26.5424C41.2132 26.3351 41.6279 26.1369 42.0625 26.0132C42.4975 25.8893 42.9607 25.89 43.393 25.7583C43.8848 25.6084 44.3371 25.458 44.6921 25.0875C44.8826 24.8886 44.8468 24.6723 44.8131 24.4166C44.7645 24.0481 44.6069 23.756 44.4518 23.4223C44.2693 23.0298 44.0016 22.6698 43.8172 22.276C43.6367 21.8907 43.6317 21.4494 43.6491 21.0357C43.669 20.5628 43.7673 20.1043 44.0716 19.7209Z" fill="url(#paint0_linear_711_736)"/>
<path d="M49.3765 10.4281C49.5456 10.1913 50.0067 10.011 50.0656 10.0368C50.687 10.0001 50.7588 10.9178 50.6213 11.1781C50.5046 11.3991 50.3079 11.5834 50.0506 11.597C49.7507 11.6128 49.4141 11.5023 49.258 11.2282C49.1082 10.9653 49.212 10.6583 49.3765 10.4281Z" fill="#2E5CFF"/>
<path d="M51.9409 11.3938C52.11 11.157 52.5712 10.9767 52.6301 11.0025C53.2515 10.9658 53.3233 11.8835 53.1858 12.1438C53.069 12.3648 52.8724 12.5491 52.6151 12.5627C52.3152 12.5785 51.9786 12.468 51.8224 12.1939C51.6726 11.9309 51.7764 11.624 51.9409 11.3938Z" fill="#94FF29"/>
<path d="M55.1642 12.1049C55.4544 12.1264 55.8481 12.4266 55.8566 12.4904C56.2109 13.0022 55.4642 13.5405 55.1703 13.5583C54.9209 13.5734 54.6612 13.5012 54.5159 13.2884C54.3465 13.0404 54.266 12.6954 54.419 12.4195C54.5658 12.1549 54.882 12.0841 55.1642 12.1049Z" fill="#B05151"/>
<path d="M53.5303 14.419C53.7289 14.6317 53.8143 15.1195 53.7773 15.1721C53.6902 15.7884 52.7764 15.677 52.5485 15.4906C52.3551 15.3325 52.2133 15.1032 52.251 14.8482C52.2949 14.5512 52.4699 14.2431 52.7695 14.1444C53.0569 14.0497 53.3372 14.2122 53.5303 14.419Z" fill="#2E5CFF"/>
<path d="M50.8384 16.5579C50.644 16.7745 50.1657 16.9025 50.11 16.8703C49.4884 16.8378 49.5189 15.9178 49.6845 15.6743C49.825 15.4677 50.0409 15.3063 50.2982 15.3214C50.5979 15.339 50.9202 15.4862 51.0449 15.7759C51.1646 16.0539 51.0274 16.3474 50.8384 16.5579Z" fill="#B05151"/>
<path d="M53.8384 18.3079C53.644 18.5245 53.1657 18.6525 53.11 18.6203C52.4884 18.5878 52.5189 17.6678 52.6845 17.4243C52.825 17.2177 53.0409 17.0563 53.2982 17.0714C53.5979 17.089 53.9202 17.2362 54.0449 17.5259C54.1646 17.8039 54.0274 18.0974 53.8384 18.3079Z" fill="#B05151"/>
<path d="M56.5997 18.1843C56.8341 18.3567 57.0079 18.8203 56.9813 18.8789C57.0093 19.5007 56.0907 19.5597 55.8323 19.4185C55.613 19.2987 55.4314 19.0995 55.4215 18.842C55.4099 18.542 55.5251 18.2069 55.8013 18.0546C56.0663 17.9085 56.3718 18.0166 56.5997 18.1843Z" fill="#94FF29"/>
<path d="M59.1876 20.0822C59.422 20.2547 59.5958 20.7183 59.5692 20.7768C59.5972 21.3986 58.6786 21.4576 58.4202 21.3165C58.2009 21.1967 58.0193 20.9975 58.0093 20.74C57.9978 20.4399 58.1129 20.1049 58.3892 19.9526C58.6542 19.8065 58.9597 19.9146 59.1876 20.0822Z" fill="#2E5CFF"/>
<path d="M42.6474 13.4117C42.6362 13.5179 42.5536 13.6226 42.4921 13.7053C42.3635 13.8781 42.2259 14.0475 42.087 14.212C41.804 14.5472 41.469 14.8386 41.1343 15.1196C40.9547 15.2703 40.792 15.4336 40.6008 15.5712C40.477 15.6603 40.3425 15.7893 40.2084 15.8563C40.1536 15.8837 40.129 15.9403 40.0687 15.9537C40.0116 15.9664 39.9303 16.011 39.8781 16.0342C39.7599 16.0867 39.6266 16.1115 39.5225 16.181" stroke="white" stroke-width="3" stroke-linecap="round"/>
<path d="M43.9427 16.0793C43.9427 16.1681 43.8931 16.2385 43.8496 16.3136C43.7305 16.5189 43.5873 16.7067 43.4402 16.8923C43.0905 17.3339 42.6279 17.7274 42.1897 18.0807C41.5092 18.6296 40.756 19.1332 40.0048 19.5839C39.6591 19.7913 39.2969 19.9754 38.9519 20.1824C38.7953 20.2763 38.5817 20.2715 38.4297 20.3475" stroke="white" stroke-width="3" stroke-linecap="round"/>
<path d="M43.5623 20.9827C43.4307 21.1033 43.269 21.1976 43.1191 21.2932C42.7881 21.5043 42.4678 21.7256 42.1424 21.9453C41.6629 22.2689 41.1339 22.523 40.666 22.8627C40.4274 23.0359 40.1629 23.1821 39.9025 23.32C39.7622 23.3942 39.6258 23.485 39.4804 23.5486C39.3192 23.6192 39.159 23.6646 39.0034 23.7505C38.7938 23.8661 38.5326 23.9404 38.3033 24.0059C38.1349 24.0541 37.9344 24.2092 37.7571 24.2092C37.6996 24.2092 37.597 24.2408 37.5412 24.2656C37.4709 24.2969 37.3894 24.2854 37.3125 24.2854" stroke="white" stroke-width="3" stroke-linecap="round"/>
<path d="M48.5803 39.3755C48.5515 39.2259 48.5357 39.1041 48.6211 38.9717C48.661 38.9098 48.8297 38.8398 48.9005 38.8224C49.0732 38.7799 49.2075 38.8857 49.2849 39.0337C49.3361 39.1317 49.3161 39.2849 49.2578 39.3752C49.1648 39.5194 49.0158 39.6057 48.8466 39.6154C48.725 39.6225 48.6017 39.4868 48.5803 39.3755Z" fill="white"/>
<path d="M55.6096 40.9664C55.5808 40.8168 55.565 40.6949 55.6504 40.5625C55.6903 40.5007 55.859 40.4306 55.9298 40.4132C56.1025 40.3707 56.2368 40.4765 56.3142 40.6245C56.3654 40.7225 56.3454 40.8757 56.2871 40.966C56.1941 41.1103 56.0451 41.1965 55.8759 41.2063C55.7543 41.2133 55.631 41.0776 55.6096 40.9664Z" fill="white"/>
<path d="M52.2346 45.9664C52.2058 45.8168 52.19 45.6949 52.2754 45.5625C52.3153 45.5007 52.484 45.4306 52.5548 45.4132C52.7275 45.3707 52.8618 45.4765 52.9392 45.6245C52.9904 45.7225 52.9704 45.8757 52.9121 45.966C52.8191 46.1103 52.6701 46.1965 52.5009 46.2063C52.3793 46.2133 52.256 46.0776 52.2346 45.9664Z" fill="white"/>
<path d="M4.73629 50.1012C4.47649 50.5048 4.08198 51.0052 3.99983 51.4936C4.05829 51.38 4.54233 51.49 4.66545 51.4302C5.03203 51.2521 5.3653 50.9539 5.6897 50.7045C6.23767 50.2832 6.92819 50.1133 7.48601 49.7102C7.77255 49.5032 8.07034 49.3312 8.38871 49.1825C8.63912 49.0655 8.94198 48.9379 9.20806 48.8777C9.60638 48.7877 9.93888 48.5587 10.326 48.4267C10.6468 48.3173 10.9548 48.2597 11.2839 48.1697C11.7391 48.0452 12.1891 47.9376 12.6372 47.7901C13.0847 47.6428 13.5244 47.4939 13.969 47.3337C14.5939 47.1084 15.1862 46.8442 15.7977 46.5843C16.456 46.3045 17.0979 45.976 17.7433 45.665C18.5035 45.2988 19.2833 44.9663 20.0274 44.5654C20.7577 44.1721 21.5284 43.8723 22.257 43.4725C22.9582 43.0878 23.6615 42.7068 24.3638 42.3242C28.2911 40.1845 32.6505 39.186 36.7061 37.3845C37.9078 36.8508 39.1116 36.3368 40.2856 35.7391C40.8474 35.4531 41.7037 35.0999 42.0224 34.4808C42.1287 34.2743 42.0552 33.8041 42.061 33.5771C42.0702 33.2171 41.8315 32.8564 41.4586 32.838C41.1513 32.823 40.8426 32.8223 40.535 32.8145C40.2261 32.8066 39.8681 32.7444 39.5644 32.8078C39.4363 32.8345 39.3088 32.8092 39.1797 32.818C39.0506 32.8269 38.9239 32.8689 38.7937 32.8805C38.549 32.9024 38.2397 33.0457 38.0385 33.1829C37.4525 33.5827 36.9879 34.1346 36.4624 34.6102C35.8569 35.1582 35.1459 35.534 34.4002 35.84C33.5466 36.1904 32.6206 36.6046 31.6888 36.6392C31.3299 36.6526 30.9378 36.7678 30.6171 36.9415C30.1282 37.2064 29.5948 37.4638 29.2108 37.8806C28.9137 38.203 28.5489 38.4569 28.2462 38.7767C27.9769 39.0612 27.686 39.3167 27.4213 39.606C26.8304 40.2516 26.1135 40.5409 25.3296 40.8571L25.3293 40.8572C24.9058 41.0281 24.4843 41.2103 24.0212 41.2198C23.5737 41.229 23.1206 41.1516 22.6791 41.2398C21.9954 41.3764 21.2626 41.7466 20.7338 42.2234C20.4856 42.4472 20.2036 42.6937 19.912 42.8538C19.632 43.0074 19.4138 43.2404 19.1088 43.3599C18.0158 43.7885 16.8695 43.9983 15.7067 44.0671C15.1452 44.1003 14.5475 43.9704 13.994 44.0776C13.4932 44.1746 13.0079 44.221 12.5344 44.4384C11.8537 44.7509 11.2371 45.1476 10.7705 45.7704C10.547 46.0686 10.3376 46.4277 10.182 46.7685C10.0082 47.1492 9.70297 47.4344 9.38967 47.6871C8.95886 48.0345 8.39617 48.212 7.85821 48.2792C7.30594 48.3482 6.78464 48.3278 6.26414 48.5863C5.64888 48.8917 5.10767 49.5242 4.73629 50.1012Z" fill="white"/>
<path d="M55.1652 44.0204C55.4756 43.7235 55.7401 43.5 56.1843 43.5C56.3917 43.5 56.8156 43.7926 56.9649 43.9337C57.3295 44.2779 57.284 44.7579 57.0517 45.1672C56.8978 45.4383 56.5042 45.625 56.2012 45.625C55.7174 45.625 55.2854 45.4038 55.0038 45.0179C54.8014 44.7405 54.9344 44.2412 55.1652 44.0204Z" fill="white"/>
<path d="M50.3755 42.4992C50.7869 42.6112 51.1124 42.7217 51.3398 43.0995C51.446 43.2759 51.4141 43.7862 51.3705 43.9854C51.2643 44.4717 50.8329 44.6787 50.3658 44.6907C50.0564 44.6986 49.6962 44.4594 49.5411 44.2016C49.2934 43.7901 49.2604 43.3096 49.4445 42.8724C49.5768 42.5583 50.0696 42.4159 50.3755 42.4992Z" fill="white"/>
<path d="M52.6536 37.7386C53.0653 37.8507 53.391 37.9613 53.6186 38.3394C53.7248 38.5159 53.6929 39.0265 53.6493 39.2259C53.543 39.7125 53.1113 39.9197 52.6439 39.9316C52.3343 39.9395 51.9739 39.7002 51.8187 39.4423C51.5708 39.0305 51.5378 38.5496 51.722 38.1122C51.8544 37.7978 52.3475 37.6553 52.6536 37.7386Z" fill="white"/>
</g>
<defs>
<linearGradient id="paint0_linear_711_736" x1="50.25" y1="25.1875" x2="51.9375" y2="29" gradientUnits="userSpaceOnUse">
<stop stop-color="white"/>
<stop offset="1" stop-color="#E7F0FF"/>
</linearGradient>
<clipPath id="clip0_711_736">
<rect width="59.1279" height="53.6495" fill="white" transform="translate(2.36719 5.10571)"/>
</clipPath>
</defs>
</svg>