<svg width="64" height="64" viewBox="0 0 64 64" fill="none" xmlns="http://www.w3.org/2000/svg">
<g clip-path="url(#clip0_713_256)">
<path fill-rule="evenodd" clip-rule="evenodd" d="M17.5371 51.8479C22.9532 56.2478 29.21 58.7553 35.8828 58.7553C45.8057 58.7553 54.8137 53.1937 61.4983 44.1353C58.6759 40.3116 55.4405 37.1089 51.8932 34.6876L46.1979 37.5308C47.4219 39.4352 48.135 41.702 48.135 44.1353C48.135 50.8942 42.6506 56.3726 35.8828 56.3726C30.6242 56.3726 26.141 53.063 24.403 48.4164L17.5371 51.8449V51.8479ZM31.667 44.7918C31.8036 45.6802 32.2196 46.5061 32.8643 47.1508C33.6634 47.95 34.7508 48.3986 35.8828 48.3956C38.2387 48.3956 40.149 46.4883 40.149 44.1353C40.149 42.9796 39.6885 41.9308 38.9399 41.1613L31.6699 44.7918H31.667Z" fill="#2BAD72"/>
<path d="M45.9016 34.1303C46.0794 33.3606 46.2631 32.5071 46.5863 31.7904C46.4812 31.4919 45.2286 31.6196 45.0103 31.5922C44.6726 31.5497 44.2976 31.6325 43.9593 31.66C43.5419 31.694 43.1417 31.7857 42.7308 31.8613C42.3516 31.931 42.0096 32.1158 41.6394 32.2107C41.1622 32.3329 40.7546 32.5054 40.3089 32.7128C39.2978 33.1833 38.1762 33.4857 37.3073 34.2251C37.1992 34.3171 36.699 34.6028 36.8265 34.7872C36.9162 34.9171 37.0102 35.0725 37.1229 35.1802C37.4462 35.4892 37.6782 35.9858 37.955 36.3423C38.1015 36.5309 38.2114 36.7462 38.3546 36.936C38.5201 37.1552 38.7267 37.3598 38.8752 37.5895C39.4195 38.4311 40.1445 39.1338 40.6145 40.0243C40.6789 40.1462 40.6708 40.3553 40.7293 40.1919C40.7675 40.0851 40.8271 39.9049 40.8862 39.8089C40.9533 39.6998 40.9764 39.4865 41.0069 39.3597C41.0554 39.1581 41.1481 38.964 41.174 38.7581C41.2001 38.5506 41.19 38.2868 41.2606 38.0897C41.2961 37.9905 41.3418 38.2841 41.3768 38.3834C41.515 38.776 41.575 39.1841 41.7151 39.5822C41.8466 39.9556 41.8844 40.36 42.0152 40.7316C42.1657 41.1591 42.2627 41.6286 42.3808 42.0672C42.4535 42.3368 42.5627 42.5916 42.6496 42.857C42.7464 43.1527 42.7635 43.471 42.8106 43.7765C42.8494 44.0275 42.8487 44.3594 42.9401 44.5932C42.9678 44.664 43.0918 45.0668 43.0954 45.0476C43.1726 44.6325 43.1134 44.1973 43.1663 43.7768C43.2373 43.2128 43.2635 42.6506 43.3343 42.0883C43.4024 41.5467 43.4272 40.996 43.4958 40.451C43.5631 39.9152 43.4537 39.3716 43.5213 38.8336C43.6433 37.8637 43.723 36.8772 43.8456 35.9024C43.8471 35.8906 43.9315 36.102 43.9548 36.173C43.9929 36.2891 44.0401 36.4151 44.0677 36.5331C44.1548 36.9061 44.3052 37.2678 44.4286 37.6309C44.558 38.0117 44.757 38.3799 44.9202 38.7501C45.0232 38.9836 45.1507 39.2283 45.2091 39.4782C45.2371 39.598 45.3307 39.9384 45.3542 39.8176C45.4289 39.4324 45.3733 39.0154 45.4153 38.6246C45.4911 37.9189 45.5044 37.2094 45.5933 36.5027C45.6914 35.7226 45.7246 34.8965 45.9016 34.1303Z" fill="#E7F0FF"/>
<path d="M43.773 30.9119C41.609 30.6376 40.9362 28.0306 40.9362 26.1926C40.9362 25.7477 40.7807 25.3397 40.9654 24.9333C41.1211 24.5909 41.1545 24.1632 41.4328 23.8849C41.5504 23.7673 41.6365 23.5854 41.8223 23.5668C42.2853 23.5205 42.7516 23.4949 43.2147 23.4435C44.8817 23.2583 46.5401 23.2714 48.2197 23.2714C50.072 23.2714 51.9404 23.2004 53.7894 23.3169C55.1632 23.4034 56.5596 23.3299 57.9374 23.3299C58.4672 23.3299 59.0129 23.2909 59.5408 23.3331C59.9207 23.3635 60.0353 23.5609 60.2419 23.8265C60.38 24.004 60.5389 24.4546 60.5632 24.6736C60.6302 25.2767 60.6249 25.8729 60.6249 26.4815C60.6249 27.2282 60.4474 27.8684 60.0991 28.5263C59.5996 29.4697 58.5155 29.7765 57.5317 29.9609C56.2736 30.1968 54.7737 29.9349 53.877 31.0385C53.1699 31.9087 53.2051 32.9621 53.2051 34.0343C53.2051 34.603 53.278 35.2416 53.0883 35.787C53.0231 35.9745 52.958 36.1395 52.7702 36.2414C52.5981 36.3349 52.3483 36.5367 52.1665 36.579C51.1809 36.8082 50.3387 36.121 50.2288 35.1314C50.1874 34.7593 50.1163 34.448 49.9918 34.1057C49.8569 33.7347 49.6116 33.4297 49.4401 33.0866C49.2704 32.7473 48.9546 32.4836 48.7649 32.1518C48.5936 31.8519 48.3564 31.4905 48.0769 31.2755C47.8338 31.0885 47.7263 30.7542 47.4667 30.5744C47.132 30.3427 46.8765 30.2707 46.4605 30.2823C46.0405 30.2939 45.6715 30.4403 45.2725 30.5289C45.018 30.5855 44.795 30.7607 44.5585 30.8665C44.3344 30.9667 44.0113 30.9421 43.773 30.9119Z" fill="#E7F0FF"/>
<path d="M48.1802 31.3947C48.3232 31.3037 48.8443 31.2773 48.6749 31.2773C49.1049 31.2773 49.1276 30.9584 49.1276 30.5983C49.1276 30.2737 49.2737 29.5792 48.9725 29.3533C48.5604 29.0442 48.3816 29.005 47.8281 29.0138C47.2783 29.0225 46.6254 29.1119 46.1095 29.2988C45.3118 29.5878 44.6351 30.1539 43.9172 30.5983C42.7615 31.3137 41.6405 32.1251 40.4338 32.7528C39.1492 33.4212 37.7501 33.8867 36.3846 34.3541C34.7177 34.9246 33.0876 35.5994 31.4257 36.1859C29.3712 36.911 27.3586 37.7452 25.3099 38.4872C23.2209 39.2437 21.1005 39.9259 19.0684 40.8304C16.1644 42.1229 13.2844 43.6675 10.5381 45.2695C8.65628 46.3672 6.79736 47.5342 5.11394 48.9205C4.58708 49.3544 3.42449 50.0292 3.40369 50.8194C3.39674 51.0836 3.33999 51.5753 3.57136 51.7835C3.69866 51.8981 3.99491 51.6731 4.12049 51.6452C4.53617 51.5528 4.96032 51.363 5.32772 51.1589C5.7943 50.8997 6.29944 50.655 6.74035 50.3667C6.95984 50.2232 7.24213 50.1242 7.4781 50.0062C7.71602 49.8872 7.94112 49.6902 8.19489 49.6122C8.41998 49.5429 8.65827 49.4062 8.87396 49.3103C9.10337 49.2084 9.36953 49.1359 9.59075 49.0253C10.0671 48.7871 10.5592 48.7751 11.0411 48.6145C12.1069 48.2592 13.3241 48.1786 14.4574 48.1786C15.1846 48.1786 15.8397 47.9158 16.5323 47.7426C17.3177 47.5463 17.8114 47.0656 18.4941 46.6863C19.877 45.918 21.3929 45.3199 22.8871 44.7665C23.9595 44.3693 25.0748 43.8024 26.2237 43.8024C27.1679 43.8024 27.9791 43.9545 28.5124 43.0478C28.7461 42.6505 28.8426 42.0553 29.1705 41.7274C29.6193 41.2787 29.9517 40.8275 30.5664 40.5202C32.371 39.6179 34.3184 39.1447 36.2211 38.4788C37.0215 38.1987 37.6919 37.8408 38.3547 37.3135C39.0659 36.7477 39.8655 36.2051 40.5093 35.5613C41.0688 35.0018 41.7448 34.468 42.4165 34.0313C42.8619 33.7419 43.2984 33.3747 43.7873 33.1636C44.2312 32.9719 44.696 32.814 45.1286 32.5977C45.6861 32.319 46.3876 31.9579 46.9982 31.8223C47.2229 31.7723 47.3726 31.6729 47.5766 31.5791C47.775 31.488 47.9921 31.5144 48.1802 31.3947Z" fill="#E7F0FF"/>
<path d="M12.5093 37.1979C12.0932 37.9098 11.6909 38.5519 11.644 39.3976C11.0598 39.6897 10.1484 39.592 9.59597 39.97C9.19344 40.2454 8.89832 40.506 8.6168 40.9147C8.53095 41.0393 7.64067 42.4013 8.0617 42.3662C8.63405 42.3185 9.26083 42.0203 9.79939 41.8421C10.9458 41.4628 12.0863 41.0603 13.2403 40.7043C16.205 39.7899 19.3215 39.2172 22.3735 38.6805C25.0035 38.218 27.6543 37.8583 30.2516 37.2255C33.1477 36.52 36.011 35.5519 38.7435 34.3604C43.3066 32.3707 47.6889 29.6508 51.4521 26.3857C52.9052 25.1249 54.4555 23.7745 55.5549 22.1794C56.0626 21.4429 56.4161 20.6343 56.5341 19.7453C56.6674 18.7411 56.512 17.684 56.2031 16.725C55.9707 16.0034 55.5011 15.4505 55.086 14.8356C54.7593 14.3516 54.3527 13.9258 53.9069 13.5496C53.5079 13.213 53.0754 12.8674 52.576 12.6876C52.3095 12.5917 51.9514 12.6497 51.6727 12.6497C51.0039 12.6497 50.5973 13.1436 50.1833 13.5806C49.816 13.9683 49.6007 14.5321 49.3627 15.008C49.0321 15.6692 48.4184 16.2198 47.8491 16.6836C46.9125 17.4468 45.652 17.9685 44.4703 18.2007C43.5447 18.3825 42.6393 18.4506 41.6983 18.4868C41.352 18.5001 41.0361 18.6448 40.7019 18.6696C40.4131 18.6909 40.1125 18.8067 39.8192 18.8419C39.4484 18.8864 39.0624 18.8557 38.6884 18.8557C37.9575 18.8557 37.1957 18.793 36.468 18.8592C36.035 18.8985 35.7594 18.9904 35.3819 19.1936C35.1677 19.309 35.1039 19.3806 34.9441 19.5694C34.7747 19.7696 34.7586 20.0401 34.6062 20.2211C34.4667 20.3867 34.392 20.615 34.2959 20.8072C34.1734 21.0522 33.9571 21.2081 33.7649 21.4002C33.5369 21.6282 33.3682 21.8935 33.1443 22.1173C32.7578 22.5038 32.4188 22.9125 32.0617 23.3206C31.6025 23.8455 31.2277 24.4557 30.7585 24.9652C30.5198 25.2243 30.3087 25.5024 30.062 25.7582C29.8425 25.9858 29.6585 26.1086 29.4069 26.3029C29.1268 26.5194 28.8438 26.683 28.5243 26.8339C28.2843 26.9472 28.0967 26.7425 27.9003 26.6443C27.0631 26.2257 26.6153 25.2069 25.7178 24.8618C25.2739 24.691 25.0826 24.6938 24.6628 24.9514C24.2929 25.1784 24.0385 25.4968 23.7457 25.8065C23.3583 26.2162 23.232 26.8263 22.9975 27.3304C22.4359 28.5379 21.8875 29.6987 20.9806 30.6782C20.4 31.3051 19.6263 31.8339 18.8912 32.2607C18.2947 32.6071 17.9472 32.6331 17.2776 32.6331C16.5617 32.6331 15.8484 32.7717 15.2434 33.1606C14.5575 33.6015 14.0175 34.1239 13.6919 34.9017C13.3592 35.6965 12.9439 36.4547 12.5093 37.1979Z" fill="white"/>
<path d="M19.0877 44.0401L60.6009 24.0842L51.4771 5.10571L46.7651 21.8767L41.1025 10.0939L36.3876 26.865L30.7249 15.0822L26.01 31.8532L20.3474 20.0704L15.6325 36.8414L9.96986 25.0586L2.36719 52.0795L12.7447 47.0912L19.0877 44.043V44.0401Z" fill="#2BAD72"/>
<path d="M49.3765 10.4281C49.5456 10.1913 50.0067 10.011 50.0656 10.0368C50.687 10.0001 50.7588 10.9178 50.6213 11.1781C50.5046 11.3991 50.3079 11.5834 50.0506 11.597C49.7507 11.6128 49.4141 11.5023 49.258 11.2282C49.1082 10.9653 49.212 10.6583 49.3765 10.4281Z" fill="#2E5CFF"/>
<path d="M51.9409 11.3938C52.11 11.157 52.5712 10.9767 52.6301 11.0025C53.2515 10.9658 53.3233 11.8835 53.1858 12.1438C53.069 12.3648 52.8724 12.5491 52.6151 12.5627C52.3152 12.5785 51.9786 12.468 51.8224 12.1939C51.6726 11.9309 51.7764 11.624 51.9409 11.3938Z" fill="#94FF29"/>
<path d="M55.1642 12.1049C55.4544 12.1264 55.8481 12.4266 55.8566 12.4904C56.2109 13.0022 55.4642 13.5405 55.1703 13.5583C54.9209 13.5734 54.6612 13.5012 54.5159 13.2884C54.3465 13.0404 54.266 12.6954 54.419 12.4195C54.5658 12.1549 54.882 12.0841 55.1642 12.1049Z" fill="#B05151"/>
<path d="M53.5303 14.419C53.7289 14.6317 53.8143 15.1195 53.7773 15.1721C53.6902 15.7884 52.7764 15.677 52.5485 15.4906C52.3551 15.3325 52.2133 15.1032 52.251 14.8482C52.2949 14.5512 52.4699 14.2431 52.7695 14.1444C53.0569 14.0497 53.3372 14.2122 53.5303 14.419Z" fill="#2E5CFF"/>
<path d="M50.8384 16.5579C50.644 16.7745 50.1657 16.9025 50.11 16.8703C49.4884 16.8378 49.5189 15.9178 49.6845 15.6743C49.825 15.4677 50.0409 15.3063 50.2982 15.3214C50.5979 15.339 50.9202 15.4862 51.0449 15.7759C51.1646 16.0539 51.0274 16.3474 50.8384 16.5579Z" fill="#B05151"/>
<path d="M53.8384 18.3079C53.644 18.5245 53.1657 18.6525 53.11 18.6203C52.4884 18.5878 52.5189 17.6678 52.6845 17.4243C52.825 17.2177 53.0409 17.0563 53.2982 17.0714C53.5979 17.089 53.9202 17.2362 54.0449 17.5259C54.1646 17.8039 54.0274 18.0974 53.8384 18.3079Z" fill="#B05151"/>
<path d="M56.5997 18.1843C56.8341 18.3567 57.0079 18.8203 56.9813 18.8789C57.0093 19.5007 56.0907 19.5597 55.8323 19.4185C55.613 19.2987 55.4314 19.0995 55.4215 18.842C55.4099 18.542 55.5251 18.2069 55.8013 18.0546C56.0663 17.9085 56.3718 18.0166 56.5997 18.1843Z" fill="#94FF29"/>
<path d="M59.1876 20.0822C59.422 20.2547 59.5958 20.7183 59.5692 20.7768C59.5972 21.3986 58.6786 21.4576 58.4202 21.3165C58.2009 21.1967 58.0193 20.9975 58.0093 20.74C57.9978 20.4399 58.1129 20.1049 58.3892 19.9526C58.6542 19.8065 58.9597 19.9146 59.1876 20.0822Z" fill="#2E5CFF"/>
<path d="M42.6474 13.4117C42.6362 13.5179 42.5536 13.6226 42.4921 13.7053C42.3635 13.8781 42.2259 14.0475 42.087 14.212C41.804 14.5472 41.469 14.8386 41.1343 15.1196C40.9547 15.2703 40.792 15.4336 40.6008 15.5712C40.477 15.6603 40.3425 15.7893 40.2084 15.8563C40.1536 15.8837 40.129 15.9403 40.0687 15.9537C40.0116 15.9664 39.9303 16.011 39.8781 16.0342C39.7599 16.0867 39.6266 16.1115 39.5225 16.181" stroke="white" stroke-width="3" stroke-linecap="round"/>
<path d="M43.9427 16.0793C43.9427 16.1681 43.8931 16.2385 43.8496 16.3136C43.7305 16.5189 43.5873 16.7067 43.4402 16.8923C43.0905 17.3339 42.6279 17.7274 42.1897 18.0807C41.5092 18.6296 40.756 19.1332 40.0048 19.5839C39.6591 19.7913 39.2969 19.9754 38.9519 20.1824C38.7953 20.2763 38.5817 20.2715 38.4297 20.3475" stroke="white" stroke-width="3" stroke-linecap="round"/>
<path d="M43.5623 20.9827C43.4307 21.1033 43.269 21.1976 43.1191 21.2932C42.7881 21.5043 42.4678 21.7256 42.1424 21.9453C41.6629 22.2689 41.1339 22.523 40.666 22.8627C40.4274 23.0359 40.1629 23.1821 39.9025 23.32C39.7622 23.3942 39.6258 23.485 39.4804 23.5486C39.3192 23.6192 39.159 23.6646 39.0034 23.7505C38.7938 23.8661 38.5326 23.9404 38.3033 24.0059C38.1349 24.0541 37.9344 24.2092 37.7571 24.2092C37.6996 24.2092 37.597 24.2408 37.5412 24.2656C37.4709 24.2969 37.3894 24.2854 37.3125 24.2854" stroke="white" stroke-width="3" stroke-linecap="round"/>
<path d="M43.5133 23.1052C44.6948 22.0672 41.84 19.0521 44.6687 19.0521C46.0928 19.0521 47.8624 19.4144 49.1508 18.8275C49.8235 18.5211 50.9122 18.6419 51.6608 18.6846C51.9194 18.6993 52.5973 18.8299 52.8261 18.9602C53.1884 19.1665 53.6269 18.9268 53.9915 19.0929C54.653 19.3943 55.5305 19.6532 55.9238 20.3385C56.3743 21.1235 56.7713 21.4365 57.5772 21.8495C58.2366 22.1875 58.7695 22.4063 59.37 22.7683C59.8595 23.0635 60.625 23.8974 60.625 24.4733C60.625 25.7031 60.5559 25.5041 59.6489 26.0353C59.1161 26.3474 58.1022 26.6692 57.6768 27.2298C57.205 27.8515 56.7362 28.3111 56.0533 28.7C55.4542 29.0411 54.6809 29.816 53.9915 29.8945C53.6791 29.9301 53.1011 30.1974 52.8261 30.3539C52.3899 30.6024 51.7822 30.3709 51.3022 30.4866C50.2317 30.7448 49.3938 30.5933 48.4337 31.1401C46.5994 32.1846 45.0546 33.5002 43.3241 34.6827C41.6259 35.8432 39.6098 36.1427 37.587 36.1427C36.0424 36.1427 34.1936 36.7725 33.1049 37.8885C32.5295 38.4783 31.3044 38.6041 30.5153 38.7052C30.0217 38.7685 29.1339 38.8393 28.8519 38.3479C28.7158 38.1108 28.4382 37.388 28.2642 37.2453C27.8715 36.9233 28.4239 35.4779 28.5232 35.1217C28.7812 34.1961 28.7113 33.3056 29.4296 32.5694C30.6337 31.3352 32.5208 30.871 33.6926 29.6699C35.0296 28.2994 36.0811 26.7336 37.8659 25.9332C39.8321 25.0515 41.9144 24.51 43.5133 23.1052Z" fill="white"/>
<path d="M26.911 39.4323C26.9378 39.9439 26.8009 40.1741 26.5834 40.619C26.6112 41.1492 25.8466 41.6544 25.5062 41.964C25.2302 42.2151 24.8752 42.3787 24.6218 42.6493C24.319 42.9726 23.9028 43.3408 23.5217 43.557C23.1284 43.7802 22.7775 44.1534 22.3349 44.2581C21.9496 44.3493 21.5243 44.5121 21.1416 44.6294C20.4437 44.8433 19.7924 45.3056 19.0921 45.5003C18.4394 45.6817 17.9221 46.1607 17.2796 46.3479C16.6002 46.5459 15.8674 46.7126 15.1656 46.9191C14.5144 47.1107 13.8585 47.1338 13.1864 47.1691C12.7246 47.1933 12.0895 47.1998 11.6439 47.0768C11.1075 46.9287 10.5724 46.3972 10.9258 45.7718C11.3397 45.0393 11.8519 44.6902 12.5014 44.2273C13.3097 43.6514 14.1962 43.446 15.067 42.9774C15.5365 42.7249 16.1195 42.6234 16.6181 42.4088C16.9865 42.2502 17.6309 42.1536 17.9284 41.8961C18.2419 41.6247 18.5685 41.4994 18.8649 41.1702C19.11 40.8979 19.354 40.4796 19.6465 40.2792C20.36 39.79 20.811 38.886 21.4487 38.3059C22.0844 37.7276 23.0636 37.1979 23.9111 37.1534C24.798 37.1069 26.217 37.2368 26.7833 38.0314C26.9977 38.3322 26.8922 39.0745 26.911 39.4323Z" fill="white"/>
</g>
<defs>
<clipPath id="clip0_713_256">
<rect width="59.1279" height="53.6495" fill="white" transform="translate(2.36719 5.10571)"/>
</clipPath>
</defs>
</svg>