<svg width="256" height="256" viewBox="0 0 256 256" fill="none" xmlns="http://www.w3.org/2000/svg">
<path fill-rule="evenodd" clip-rule="evenodd" d="M57.9821 199.837C77.8153 215.949 100.727 225.132 125.163 225.132C161.5 225.132 194.487 204.766 218.965 171.594C208.63 157.593 196.782 145.864 183.792 136.997L162.936 147.409C167.419 154.383 170.029 162.684 170.029 171.594C170.029 196.345 149.946 216.406 125.163 216.406C105.906 216.406 89.4889 204.287 83.1244 187.272L57.9821 199.827V199.837ZM109.725 173.998C110.225 177.252 111.748 180.276 114.109 182.637C117.036 185.563 121.017 187.206 125.163 187.195C133.79 187.195 140.785 180.211 140.785 171.594C140.785 167.362 139.099 163.521 136.357 160.704L109.736 173.998H109.725Z" fill="#2BAD72"/>
<path fill-rule="evenodd" clip-rule="evenodd" d="M213.062 93.7664C195.235 69.9266 154.462 67.1871 127.687 74.3788C104.85 80.512 97.3159 109.114 132.605 101.123C168.954 92.8908 166.505 95.3555 200.035 107.335C216.527 113.229 222.163 110.297 213.062 93.7664Z" fill="#272727"/>
<path fill-rule="evenodd" clip-rule="evenodd" d="M212.032 97.3901C219.657 112.421 209.901 108.746 199.895 104.555C162.853 89.0521 163.576 92.9636 125.979 99.7026C103.196 103.785 110.58 85.2365 120.901 80.0757C139.922 70.5649 188.355 72.5262 204.265 87.4067C207.676 90.598 209.546 93.5129 212.032 97.3901Z" fill="#FDE3C0"/>
<path fill-rule="evenodd" clip-rule="evenodd" d="M113.783 99.4694C113.783 99.4694 104.597 98.0416 106.545 86.648C108.491 75.2546 112.176 81.8137 113.373 74.6044C114.567 67.3964 109.314 65.0959 115.189 59.5199C121.061 53.9429 128.102 60.0924 128.102 60.0924C128.102 60.0924 131.468 34.8824 159.69 23.8771C187.912 12.8693 192.515 18.2124 201.98 24.966C211.444 31.7197 226.604 37.7491 232.227 45.2619C237.85 52.7759 237.665 59.7926 234.067 67.7341C230.47 75.6768 226.888 79.295 226.888 79.295C226.888 79.295 229.143 87.1156 228.772 96.6165C228.402 106.118 227.009 107.22 225.598 108.688C224.189 110.152 220.571 111.098 220.571 111.098C220.571 111.098 214.272 135.753 214.033 139.89C213.791 144.029 216.409 152.432 225.576 150.262C234.742 148.09 237.127 151.68 238.13 153.647C239.131 155.614 237.582 151.021 228.267 152.693C218.95 154.363 210.24 158.14 206.324 145.634C202.407 133.127 203.025 111.668 203.025 111.668C203.025 111.668 184.265 113.58 162.776 105.865C141.286 98.1487 119.278 89.2433 113.783 99.4694Z" fill="#B8182F"/>
<path fill-rule="evenodd" clip-rule="evenodd" d="M107.747 86.8512C106.345 95.0635 111.247 97.4535 113.206 98.072C119.409 88.8625 138.729 95.8627 158.625 103.07L163.189 104.715C183.608 112.048 201.427 110.592 202.819 110.465C202.896 110.453 202.973 110.446 203.053 110.449L204.245 111.697C204.243 111.758 203.633 132.959 207.488 145.27C210.574 155.121 217.13 153.747 224.492 152.203C225.678 151.953 226.884 151.699 228.051 151.491C230.203 151.104 231.984 151.039 233.446 151.154C231.784 150.671 229.38 150.613 225.855 151.45C224.501 151.769 223.269 151.88 222.153 151.819L222.112 151.817C219.387 151.657 217.358 150.5 215.894 148.892C214.475 147.335 213.614 145.364 213.171 143.501C212.855 142.166 212.754 140.873 212.815 139.825C213.053 135.686 219.026 112.217 219.371 110.864L220.246 109.922C220.246 109.922 223.559 109.051 224.721 107.843L224.874 107.683C226.066 106.453 227.215 105.268 227.557 96.5703C227.829 89.5364 226.639 83.4633 226.041 80.9136L226.167 79.5802L226.292 78.1438C227.183 77.145 230.041 73.6672 232.958 67.2309C234.677 63.4328 235.583 59.8793 235.39 56.411C235.197 52.9672 233.911 49.5518 231.248 45.9946C227.825 41.4193 220.514 37.3083 213.26 33.2301C209.006 30.8374 204.77 28.4542 201.274 25.9607L199.617 24.7632C191.489 18.8536 186.05 14.9031 160.134 25.0097C132.582 35.7555 129.322 60.191 129.312 60.2605C129.279 60.4817 129.187 60.6972 129.032 60.8805C128.597 61.3932 127.828 61.457 127.314 61.0233C127.297 61.0065 121.091 55.5913 116.027 60.4022C112.966 63.3063 113.44 65.1875 114.049 67.6128C114.53 69.5362 115.081 71.7364 114.573 74.8015C113.94 78.6233 112.651 79.2431 111.208 79.9371C110.046 80.4964 108.724 81.1314 107.747 86.8512ZM113.514 100.66C112.605 100.49 103.289 98.4573 105.343 86.4474C106.531 79.4839 108.458 78.5572 110.155 77.7409C110.994 77.3373 111.744 76.976 112.171 74.4061C112.597 71.8338 112.109 69.8951 111.684 68.2031C110.883 65.0022 110.26 62.5205 114.351 58.6366C119.183 54.0466 124.624 56.3654 127.27 58.0036C128.707 51.8068 135.066 32.1722 159.246 22.7421C186.409 12.1482 192.276 16.4152 201.049 22.7919C201.548 23.1558 202.056 23.5251 202.685 23.9728C206.085 26.4002 210.263 28.7496 214.457 31.1072C221.94 35.3142 229.482 39.5549 233.206 44.5319C236.168 48.4884 237.602 52.3389 237.821 56.2657C238.041 60.169 237.054 64.0953 235.177 68.2374C232.271 74.6487 229.35 78.3392 228.237 79.6234C228.769 81.7272 230.304 88.6009 229.989 96.6652C229.614 106.296 228.144 107.812 226.62 109.384L226.474 109.532C225.247 110.81 222.781 111.7 221.581 112.076C220.573 116.049 215.461 136.328 215.25 139.958C215.203 140.799 215.288 141.847 215.547 142.939C215.904 144.45 216.59 146.032 217.7 147.25C218.763 148.42 220.25 149.262 222.256 149.379L222.29 149.382C223.187 149.429 224.185 149.337 225.296 149.074C230.191 147.915 233.345 148.325 235.427 149.295C237.643 150.332 238.632 151.95 239.214 153.093L239.271 153.206C239.349 153.282 239.395 153.371 239.416 153.466C240.243 154.935 240.675 155.57 238.286 155.365L238.147 155.344C237.841 155.295 237.728 155.189 237.525 155.016L237.521 155.013C237.117 154.669 234.866 152.75 228.481 153.896C227.273 154.113 226.12 154.354 224.987 154.592C216.481 156.376 208.905 157.965 205.16 145.999C201.768 135.172 201.719 117.886 201.78 112.98C197.064 113.254 180.693 113.598 162.363 107.014L157.798 105.362C138.344 98.3123 119.465 91.4718 114.856 100.048C114.592 100.541 114.034 100.778 113.514 100.66Z" fill="#272727"/>
<path fill-rule="evenodd" clip-rule="evenodd" d="M204.245 111.697L203.053 110.449L201.88 110.536C202.743 99.8109 199.907 87.725 195.216 75.0237C189.953 60.7761 182.279 47.0997 174.57 37.9346C174.135 37.419 174.203 36.648 174.72 36.2148C175.237 35.7816 176.007 35.8488 176.44 36.3659C184.318 45.7289 192.15 59.6753 197.506 74.1815C202.309 87.184 205.136 100.602 204.245 111.697Z" fill="#272727"/>
<path fill-rule="evenodd" clip-rule="evenodd" d="M222.073 109.326L221.182 109.64L220.246 109.922L219.371 110.864L219.678 108.999C221.453 98.1972 225.685 72.4463 223.894 62.1677C223.78 61.5027 224.228 60.8724 224.892 60.7605C225.557 60.646 226.187 61.0936 226.3 61.7587C226.981 65.6628 226.837 71.6219 226.292 78.1438C226.216 79.0574 226.132 79.982 226.041 80.9136C225.011 91.4901 223.119 102.962 222.073 109.326Z" fill="#272727"/>
<path fill-rule="evenodd" clip-rule="evenodd" d="M242.078 168.258C248.992 167.629 254.118 161.477 253.489 154.563C252.86 147.65 246.707 142.523 239.792 143.152C232.879 143.781 227.753 149.935 228.383 156.848C229.012 163.763 235.164 168.887 242.078 168.258Z" fill="#FDE3C0"/>
<path fill-rule="evenodd" clip-rule="evenodd" d="M252.912 151.772C251.121 146.326 245.738 142.611 239.792 143.152C234.077 143.672 229.584 147.969 228.554 153.347C230.345 158.795 235.726 162.509 241.672 161.968C247.387 161.448 251.882 157.152 252.912 151.772Z" fill="#FDE3C0"/>
<path fill-rule="evenodd" clip-rule="evenodd" d="M251.552 164.55C249.284 167.271 245.982 169.129 242.188 169.475C238.396 169.82 234.811 168.588 232.09 166.321L232.089 166.316C229.37 164.049 227.51 160.747 227.166 156.959C226.82 153.166 228.053 149.581 230.32 146.861C232.587 144.141 235.889 142.281 239.682 141.936C243.476 141.591 247.058 142.824 249.779 145.09C252.499 147.356 254.36 150.659 254.705 154.452C255.051 158.245 253.817 161.828 251.552 164.55ZM241.967 167.041C245.087 166.757 247.807 165.224 249.674 162.985C251.54 160.745 252.555 157.794 252.271 154.674C251.987 151.553 250.456 148.834 248.214 146.967C245.976 145.102 243.024 144.086 239.903 144.37C236.783 144.654 234.065 146.186 232.197 148.425C230.331 150.666 229.315 153.617 229.599 156.737C229.884 159.86 231.414 162.579 233.653 164.446C235.897 166.308 238.846 167.325 241.967 167.041Z" fill="#272727"/>
<path fill-rule="evenodd" clip-rule="evenodd" d="M125.689 58.2761C133.096 67.856 145.501 71.496 156.926 73.6171C163.424 74.8237 170.095 75.3111 176.662 76.0248C183.66 76.7827 191.012 76.7139 197.824 78.5453C198.546 78.7406 198.934 77.5238 198.221 77.2921C192.269 75.3604 185.753 75.7685 179.587 75.0672C173.37 74.3596 167.159 73.7471 160.986 72.7107C148.102 70.5471 135.909 66.8842 126.02 57.9677C125.828 57.794 125.53 58.0699 125.689 58.2761Z" fill="#272727"/>
<path fill-rule="evenodd" clip-rule="evenodd" d="M190.692 95.7855C183.26 94.4248 175.704 93.9237 168.563 91.2888C161.466 88.6708 154.254 86.6969 146.849 85.1488C140.549 83.8347 134.606 80.7917 128.48 78.8625C123.003 77.14 115.658 75.6366 110.24 78.3201C109.686 78.5936 109.801 79.5306 110.496 79.4404C113.901 79.0018 116.888 78.307 120.369 78.5871C123.659 78.8538 126.877 79.8198 129.986 80.8691C135.897 82.8608 141.576 85.6092 147.718 86.8494C155.467 88.414 162.821 90.6263 170.324 93.0554C176.847 95.1692 183.818 95.4772 190.54 96.6328C191.087 96.7263 191.238 95.8865 190.692 95.7855Z" fill="#272727"/>
<path fill-rule="evenodd" clip-rule="evenodd" d="M180.378 23.9796C184.425 23.2692 188.204 23.2513 192.106 24.7003C195.195 25.8446 198.295 26.9156 201.422 27.9499C204.399 28.9328 207.36 29.9404 210.266 31.121C213.393 32.3917 216.136 34.3483 219.197 35.6876C219.55 35.8418 220.006 35.3983 219.712 35.0707C215.357 30.2089 207.02 28.2799 201.035 26.3585C197.827 25.3293 194.627 23.9487 191.371 23.104C187.576 22.1195 184.036 22.6832 180.333 23.7802C180.219 23.8126 180.263 24.001 180.378 23.9796Z" fill="#272727"/>
<path fill-rule="evenodd" clip-rule="evenodd" d="M213.936 94.7534C213.891 99.5659 214.184 104.37 213.71 109.17C213.269 113.642 212.36 118.021 211.756 122.47C210.795 129.552 210.205 138.904 214.916 144.877C215.265 145.322 216.041 144.956 215.814 144.398C214.18 140.373 212.944 136.695 212.678 132.304C212.421 128.054 213.014 123.777 213.648 119.585C214.915 111.248 215.159 103.136 214.318 94.7186C214.292 94.4672 213.937 94.5106 213.936 94.7534Z" fill="#272727"/>
<path fill-rule="evenodd" clip-rule="evenodd" d="M189.428 48.7814C190.526 51.2886 191.656 53.9215 193.111 56.2429C193.255 56.47 193.569 56.265 193.502 56.0344C192.755 53.4182 191.154 51.0256 190.03 48.5539C189.86 48.1808 189.264 48.3993 189.428 48.7814Z" fill="#272727"/>
<path fill-rule="evenodd" clip-rule="evenodd" d="M241.297 146.877C244.024 146.696 246.132 148.306 247.497 150.522C248.824 152.679 248.734 155.195 249.061 157.604C249.102 157.909 249.524 158.005 249.662 157.709C250.839 155.167 249.84 152.089 248.518 149.794C246.942 147.056 244.25 146.104 241.277 146.659C241.141 146.685 241.153 146.885 241.297 146.877Z" fill="#FDE3C0"/>
<path fill-rule="evenodd" clip-rule="evenodd" d="M128.48 78.8625C134.606 80.7917 140.549 83.8347 146.849 85.1488C154.254 86.6969 161.466 88.6708 168.563 91.2888C175.704 93.9237 183.26 94.4248 190.692 95.7855C191.238 95.8865 191.087 96.7263 190.54 96.6328C183.818 95.4772 176.847 95.1692 170.324 93.0554C162.821 90.6263 155.467 88.414 147.718 86.8494C141.576 85.6092 135.897 82.8608 129.986 80.8691C126.877 79.8198 123.659 78.8538 120.369 78.5871C117.617 78.3657 115.17 78.7565 112.585 79.1451C112.155 79.4821 111.69 79.7057 111.208 79.9371C110.046 80.4964 108.724 81.1314 107.747 86.8512C106.345 95.0635 111.247 97.4535 113.206 98.072C119.409 88.8625 138.729 95.8627 158.625 103.07L163.189 104.715C181.501 111.291 197.725 110.799 201.88 110.536C202.437 100.908 200.199 89.4684 196.338 78.1783C189.949 76.7202 183.153 76.7295 176.662 76.0248C170.095 75.3111 163.424 74.8237 156.926 73.6171C146.781 71.7349 135.868 68.6543 128.363 61.2822C128.004 61.3614 127.616 61.2778 127.314 61.0233C127.297 61.0065 121.091 55.5913 116.027 60.4022C112.966 63.3063 113.44 65.1875 114.049 67.6128C114.53 69.5362 115.081 71.7364 114.573 74.8015C114.416 75.7621 114.214 76.5197 113.981 77.1292C118.742 76.2975 124.186 77.5116 128.48 78.8625Z" fill="#FDE3C0"/>
<path fill-rule="evenodd" clip-rule="evenodd" d="M155.204 27.1977C132.183 38.7407 129.321 60.1947 129.312 60.2605C129.293 60.3799 129.259 60.4957 129.209 60.6069C138.477 67.6371 149.455 70.7745 160.986 72.7107C167.159 73.7471 173.37 74.3596 179.587 75.0672C179.814 75.0931 180.042 75.1178 180.271 75.1411C179.327 72.7131 178.128 71.3575 177.052 70.6012C176.098 70.5949 175.143 70.5739 174.186 70.5238C166.905 70.1484 159.887 67.028 153.355 64.0215C153.278 63.988 153.333 63.885 153.406 63.9078C161.348 66.5224 168.77 69.3315 177.259 69.2108C177.631 69.2064 178.003 69.1995 178.38 69.1897C179.129 68.7133 179.674 67.8928 179.655 66.5057C179.595 62.1821 178.483 49.9615 165.9 39.7851C158.749 34.0012 156.002 30.5042 155.204 27.1977Z" fill="#B8182F"/>
<path fill-rule="evenodd" clip-rule="evenodd" d="M181.594 76.4549C186.358 79.7118 187.501 83.8241 187.38 87.4411C187.222 92.1119 176.196 91.9217 165.721 90.2779C166.67 90.6046 167.618 90.9409 168.563 91.2888C175.704 93.9237 183.26 94.4248 190.692 95.7855C191.238 95.8865 191.087 96.7263 190.54 96.6328C188.844 96.341 187.131 96.1037 185.414 95.8776C188.502 96.9226 188.141 98.5685 188.778 102.799C189.159 105.33 188.967 107.946 187.492 110.155C194.534 110.862 199.767 110.67 201.88 110.536C202.437 100.908 200.199 89.4684 196.338 78.1783C191.553 77.0866 186.538 76.8174 181.594 76.4549Z" fill="#DD9D95"/>
<path fill-rule="evenodd" clip-rule="evenodd" d="M131.908 65.0925C131.955 65.1153 132.007 65.1399 132.051 65.1641C134.86 66.5753 137.696 67.8542 140.581 69.1017C144.716 70.858 150.947 73.5511 155.249 74.6156C155.528 74.6675 176.199 78.114 176.279 78.1496C173.387 80.0798 158.497 77.2997 154.947 76.8237C150.864 76.2466 143.438 73.2308 139.519 71.6423C136.547 70.4236 133.627 69.161 130.755 67.7199C130.705 67.6987 130.654 67.6691 130.607 67.6451C129.555 67.1097 128.64 66.5556 127.629 65.9748C126.899 65.5019 126.185 65.019 125.686 64.291C125.379 63.8213 125.095 63.5322 124.618 63.2373C124.139 62.9671 123.744 62.8449 123.202 62.7681C119.888 62.6407 120.182 63.9205 119.642 62.3812C118.053 60.5623 122.124 60.2457 123.426 60.1688C124.377 60.2268 125.088 60.4146 125.944 60.8466C126.865 61.3511 127.449 61.9022 128.044 62.7673C128.131 62.8452 129.114 63.6101 129.154 63.572C130.053 64.1227 130.97 64.6105 131.908 65.0925Z" fill="white"/>
<path fill-rule="evenodd" clip-rule="evenodd" d="M232.596 148.962C233.141 148.173 233.74 147.61 234.501 147.029C235.313 146.442 236.06 146.018 237.014 145.704C237.383 145.531 239.317 145.108 239.383 145.83C239.363 146.261 238.256 147.014 237.92 147.293C237.333 147.832 236.788 148.358 236.248 148.95C235.877 149.28 235.268 150.122 234.972 150.561C234.958 150.581 234.936 150.621 234.922 150.637C234.786 150.795 234.664 151.083 234.526 151.261C234.197 151.73 233.719 151.608 233.178 151.602C232.235 151.651 231.733 151.834 231.975 150.326C231.983 149.967 232.369 149.392 232.516 149.081C232.532 149.049 232.574 148.991 232.596 148.962Z" fill="#FDE3C0"/>
<path d="M63.6603 171.245L215.678 98.1685L182.268 28.6707L165.013 90.0851L144.277 46.9373L127.011 108.352L106.275 65.2038L89.0093 126.618L68.2733 83.4704L51.0075 144.885L30.2714 101.737L2.43091 200.686L40.4328 182.419L63.6603 171.256V171.245Z" fill="#2BAD72"/>
<path d="M189.674 110.677L172.28 118.916C172.28 118.916 161.181 116.5 154.428 113.881C148.688 111.656 145.273 108.388 140.238 107.015C135.203 105.642 127.879 105.184 127.879 105.184L128.794 101.522L131.083 93.283L189.674 110.677Z" fill="#20945F"/>
<mask id="mask0_0_216" style="mask-type:alpha" maskUnits="userSpaceOnUse" x="2" y="26" width="217" height="176">
<path d="M63.2294 171.774L218.054 98.7758L181.892 26.4526L164.956 89.621L144.358 44.3046C144.358 44.3046 126.963 96.0293 129.71 96.4871C132.456 96.9448 141 99.5 141 99.5L128.48 101.98L126.58 108.88L106.823 127.147H88.5784L67.8424 83.9988L50.5766 145.413L29.8405 102.265L2 201.214L40.0019 182.947L63.2294 171.785V171.774Z" fill="#2BAD72"/>
</mask>
<g mask="url(#mask0_0_216)">
<path fill-rule="evenodd" clip-rule="evenodd" d="M213.062 93.7666C195.235 69.9268 154.462 67.1873 127.687 74.379C104.85 80.5122 97.3159 109.114 132.605 101.123C168.954 92.891 166.505 95.3557 200.035 107.336C216.527 113.229 222.163 110.298 213.062 93.7666Z" fill="#272727"/>
<path fill-rule="evenodd" clip-rule="evenodd" d="M212.032 97.3903C219.657 112.421 209.901 108.747 199.895 104.555C162.853 89.0523 163.576 92.9638 125.979 99.7028C103.196 103.785 110.58 85.2367 120.901 80.0759C139.922 70.5651 188.355 72.5264 204.265 87.4069C207.676 90.5982 209.546 93.5131 212.032 97.3903Z" fill="#926C73"/>
<path fill-rule="evenodd" clip-rule="evenodd" d="M113.783 99.4695C113.783 99.4695 104.597 98.0418 106.545 86.6482C108.491 75.2548 112.176 81.8139 113.373 74.6045C114.567 67.3966 109.314 65.0961 115.189 59.5201C121.061 53.9431 128.102 60.0925 128.102 60.0925C128.102 60.0925 132.764 42.5051 160.986 31.4997C189.208 20.4919 192.515 18.2125 201.98 24.9662C211.444 31.7199 226.604 37.7493 232.227 45.2621C237.85 52.7761 237.665 59.7928 234.067 67.7343C230.47 75.677 226.888 79.2952 226.888 79.2952C226.888 79.2952 229.143 87.1158 228.772 96.6167C228.402 106.118 227.009 107.22 225.598 108.688C224.189 110.153 220.571 111.098 220.571 111.098C220.571 111.098 214.272 135.753 214.033 139.89C213.791 144.03 216.409 152.432 225.576 150.262C234.742 148.09 237.127 151.68 238.13 153.647C239.131 155.614 237.582 151.021 228.267 152.693C218.95 154.363 216.375 157.116 212.459 144.61C208.542 132.103 204.315 111.245 204.315 111.245C204.315 111.245 184.265 113.581 162.776 105.865C141.286 98.1489 119.278 89.2435 113.783 99.4695Z" fill="#B8182F"/>
<path fill-rule="evenodd" clip-rule="evenodd" d="M107.747 86.8514C106.345 95.0637 111.247 97.4537 113.206 98.0722C119.409 88.8627 138.729 95.8629 158.625 103.071L163.189 104.716C183.608 112.048 201.427 110.592 202.819 110.465C202.896 110.453 202.973 110.446 203.053 110.449C203.727 110.465 204.296 111.029 204.281 111.703C204.279 111.764 203.633 132.96 207.488 145.27C210.574 155.121 217.13 153.747 224.492 152.203C225.678 151.953 226.884 151.7 228.051 151.492C230.203 151.104 231.984 151.039 233.446 151.154C231.784 150.671 229.38 150.613 225.855 151.45C224.5 151.769 223.269 151.88 222.153 151.819L222.112 151.818C219.387 151.658 217.358 150.5 215.894 148.892C214.475 147.335 213.614 145.365 213.171 143.501C212.855 142.166 212.754 140.873 212.815 139.825C213.053 135.686 219.026 112.217 219.371 110.864C219.457 110.424 219.785 110.047 220.246 109.922C220.255 109.92 223.559 109.052 224.721 107.843L224.874 107.683C226.066 106.453 227.215 105.269 227.557 96.5705C227.917 87.2728 225.722 79.6539 225.716 79.6323C225.601 79.2273 225.697 78.7749 226.009 78.4498C226.019 78.4403 229.446 74.9796 232.958 67.2311C234.677 63.433 235.583 59.8794 235.39 56.4112C235.197 52.9674 233.911 49.552 231.248 45.9948C227.825 41.4195 220.514 37.3084 213.259 33.2303C209.006 30.8376 204.77 28.4544 201.274 25.9608L199.617 24.7634C191.489 18.8538 187.417 19.8931 161.5 29.9998C133.948 40.7455 129.322 60.1912 129.312 60.2607C129.279 60.4819 129.187 60.6974 129.032 60.8807C128.597 61.3934 127.828 61.4572 127.314 61.0235C127.297 61.0067 121.091 55.5915 116.027 60.4024C112.966 63.3065 113.44 65.1876 114.049 67.613C114.53 69.5364 115.081 71.7366 114.573 74.8017C113.939 78.6235 112.651 79.2433 111.208 79.9373C110.046 80.4966 108.724 81.1316 107.747 86.8514ZM113.514 100.66C112.605 100.49 103.289 98.4575 105.343 86.4476C106.531 79.4841 108.458 78.5574 110.155 77.7411C110.994 77.3375 111.744 76.9762 112.171 74.4063C112.597 71.834 112.109 69.8953 111.684 68.2033C110.883 65.0024 110.26 62.5207 114.351 58.6368C119.183 54.0468 124.624 56.3656 127.27 58.0038C128.707 51.807 135.51 43.2278 159.69 33.7977C186.853 23.2038 192.276 16.4154 201.049 22.792C201.548 23.156 202.056 23.5252 202.685 23.973C206.085 26.4004 210.263 28.7498 214.457 31.1074C221.94 35.3144 229.482 39.5551 233.206 44.532C236.168 48.4886 237.602 52.3391 237.821 56.2659C238.041 60.1692 237.054 64.0955 235.177 68.2376C232.271 74.6489 229.35 78.3394 228.237 79.6235C228.769 81.7274 230.304 88.6011 229.989 96.6654C229.614 106.297 228.144 107.812 226.62 109.385L226.474 109.533C225.247 110.81 222.781 111.7 221.581 112.076C220.572 116.049 215.461 136.329 215.25 139.959C215.203 140.799 215.288 141.848 215.547 142.939C215.904 144.45 216.59 146.033 217.7 147.25C218.763 148.42 220.25 149.262 222.256 149.379L222.29 149.382C223.187 149.429 224.185 149.337 225.296 149.074C230.191 147.915 233.345 148.325 235.427 149.295C237.643 150.332 238.632 151.95 239.214 153.094L239.271 153.206C239.349 153.282 239.395 153.371 239.416 153.466C240.243 154.935 240.675 155.57 238.286 155.365L238.147 155.344C237.841 155.295 237.728 155.189 237.525 155.016L237.521 155.013C237.117 154.669 234.866 152.75 228.481 153.896C227.273 154.113 226.12 154.354 224.987 154.592C216.481 156.376 208.905 157.966 205.16 145.999C201.768 135.173 201.719 117.886 201.78 112.98C197.064 113.254 180.693 113.598 162.363 107.014L157.798 105.362C138.344 98.3125 119.465 91.472 114.856 100.048C114.592 100.541 114.034 100.778 113.514 100.66Z" fill="#272727"/>
<path fill-rule="evenodd" clip-rule="evenodd" d="M204.281 111.703C204.228 112.373 203.601 112.939 202.929 112.886C202.259 112.833 201.756 112.245 201.808 111.574C201.945 109.871 201.991 108.107 201.952 106.294C201.744 96.691 199.162 85.7077 195.216 75.0239C189.953 60.7763 182.279 47.0999 174.57 37.9348C174.135 37.4192 174.203 36.6481 174.72 36.215C175.237 35.7818 176.007 35.849 176.44 36.3661C184.318 45.729 192.15 59.6754 197.506 74.1817C202.309 87.1842 205.172 100.608 204.281 111.703Z" fill="#272727"/>
<path fill-rule="evenodd" clip-rule="evenodd" d="M221.771 111.297C221.663 111.961 221.036 112.41 220.374 112.302C219.707 112.192 219.259 111.566 219.367 110.902L219.678 108.999C221.453 98.1974 225.685 72.4465 223.894 62.1679C223.78 61.5029 224.228 60.8726 224.892 60.7607C225.557 60.6462 226.187 61.0938 226.3 61.7589C228.158 72.4187 223.88 98.4668 222.085 109.394L221.771 111.297Z" fill="#272727"/>
<path fill-rule="evenodd" clip-rule="evenodd" d="M242.078 168.258C248.992 167.629 254.118 161.478 253.489 154.563C252.859 147.65 246.707 142.523 239.792 143.152C232.879 143.781 227.753 149.935 228.383 156.848C229.012 163.763 235.164 168.888 242.078 168.258Z" fill="#DD9D95"/>
<path fill-rule="evenodd" clip-rule="evenodd" d="M252.912 151.772C251.121 146.326 245.738 142.611 239.792 143.152C234.077 143.672 229.584 147.969 228.554 153.347C230.345 158.795 235.726 162.509 241.672 161.968C247.387 161.448 251.882 157.152 252.912 151.772Z" fill="#FDE3C0"/>
<path fill-rule="evenodd" clip-rule="evenodd" d="M251.552 164.55C249.284 167.271 245.982 169.13 242.188 169.475C238.396 169.82 234.811 168.589 232.09 166.321L232.089 166.316C229.37 164.049 227.51 160.747 227.166 156.959C226.82 153.166 228.053 149.582 230.32 146.861C232.587 144.141 235.889 142.282 239.682 141.936C243.476 141.591 247.058 142.824 249.779 145.09C252.499 147.356 254.36 150.659 254.705 154.452C255.051 158.245 253.817 161.828 251.552 164.55ZM241.967 167.041C245.087 166.757 247.807 165.224 249.674 162.985C251.54 160.745 252.555 157.794 252.271 154.674C251.987 151.553 250.456 148.834 248.214 146.967C245.976 145.102 243.024 144.086 239.903 144.37C236.783 144.654 234.065 146.186 232.197 148.425C230.331 150.666 229.315 153.617 229.599 156.737C229.884 159.86 231.414 162.579 233.653 164.446C235.897 166.308 238.846 167.325 241.967 167.041Z" fill="#272727"/>
<path fill-rule="evenodd" clip-rule="evenodd" d="M125.689 58.2763C133.096 67.8562 145.501 71.4962 156.926 73.6173C163.424 74.8239 170.095 75.3113 176.662 76.025C183.66 76.7829 191.012 76.7141 197.824 78.5455C198.546 78.7408 198.934 77.524 198.221 77.2923C192.269 75.3606 185.753 75.7687 179.587 75.0674C173.37 74.3598 167.159 73.7473 160.986 72.7109C148.102 70.5473 135.909 66.8844 126.02 57.9679C125.828 57.7942 125.53 58.0701 125.689 58.2763Z" fill="#272727"/>
<path fill-rule="evenodd" clip-rule="evenodd" d="M190.692 95.7857C183.26 94.425 175.704 93.9239 168.563 91.289C161.466 88.671 154.254 86.6971 146.849 85.149C140.549 83.8349 134.606 80.7919 128.48 78.8627C123.003 77.1402 115.658 75.6368 110.24 78.3203C109.686 78.5938 109.801 79.5308 110.496 79.4406C113.9 79.002 116.888 78.3072 120.369 78.5873C123.659 78.854 126.877 79.82 129.986 80.8693C135.897 82.861 141.576 85.6093 147.718 86.8496C155.467 88.4142 162.821 90.6265 170.324 93.0556C176.847 95.1694 183.818 95.4774 190.54 96.633C191.087 96.7265 191.238 95.8867 190.692 95.7857Z" fill="#272727"/>
<path fill-rule="evenodd" clip-rule="evenodd" d="M165.164 33.7975C167.455 34.9066 169.784 35.9032 172.088 36.9804C174.436 38.0819 176.372 40.1156 178.721 41.0428C179.038 41.1672 179.455 40.8743 179.292 40.5141C178.304 38.3352 175.453 37.0492 173.403 36.037C170.785 34.7445 168.13 34.0007 165.311 33.3381C165.035 33.2737 164.92 33.68 165.164 33.7975Z" fill="#272727"/>
<path fill-rule="evenodd" clip-rule="evenodd" d="M171.534 33.8121C173.076 34.5923 174.43 35.9557 175.669 37.1409C177.142 38.5476 177.873 40.2227 179.041 41.8214C179.213 42.057 179.607 41.9795 179.656 41.6833C179.976 39.7874 177.701 38.7891 176.5 37.4999C174.954 35.8413 173.788 34.2308 171.67 33.5214C171.477 33.4569 171.346 33.7164 171.534 33.8121Z" fill="#272727"/>
<path fill-rule="evenodd" clip-rule="evenodd" d="M220.881 56.609C221.437 58.1629 222.313 59.5772 223.032 61.0611C223.795 62.6304 223.886 64.5501 224.835 65.9787C224.983 66.2006 225.387 66.187 225.487 65.9194C226.554 62.97 223.46 58.3955 221.661 56.1912C221.347 55.8067 220.707 56.1175 220.881 56.609Z" fill="#272727"/>
<path fill-rule="evenodd" clip-rule="evenodd" d="M227.535 58.277C225.744 58.1397 224.862 59.5291 224.583 61.127C224.313 62.68 224.301 65.2551 225.263 66.582C225.408 66.7808 225.729 66.759 225.833 66.5301C226.347 65.412 225.926 63.9881 225.858 62.8103C225.754 61.083 226.133 59.7248 227.647 58.7792C227.843 58.6571 227.774 58.2957 227.535 58.277Z" fill="#272727"/>
<path fill-rule="evenodd" clip-rule="evenodd" d="M180.378 23.9798C184.425 23.2694 188.204 23.2515 192.106 24.7005C195.195 25.8448 198.295 26.9158 201.422 27.9501C204.399 28.9329 207.36 29.9406 210.266 31.1212C213.393 32.3919 216.136 34.3485 219.197 35.6877C219.55 35.842 220.006 35.3985 219.712 35.0709C215.357 30.2091 207.02 28.2801 201.035 26.3587C197.827 25.3295 194.627 23.9489 191.371 23.1042C187.576 22.1197 184.036 22.6834 180.333 23.7804C180.219 23.8128 180.263 24.0012 180.378 23.9798Z" fill="#272727"/>
<path fill-rule="evenodd" clip-rule="evenodd" d="M213.936 94.7536C213.891 99.5661 214.184 104.37 213.71 109.17C213.269 113.642 212.36 118.021 211.756 122.47C210.795 129.552 210.205 138.904 214.916 144.877C215.265 145.322 216.041 144.956 215.814 144.398C214.18 140.374 212.944 136.695 212.678 132.304C212.421 128.054 213.014 123.777 213.648 119.585C214.915 111.248 215.159 103.136 214.318 94.7188C214.292 94.4674 213.937 94.5108 213.936 94.7536Z" fill="#272727"/>
<path fill-rule="evenodd" clip-rule="evenodd" d="M217.157 39.1951C218.683 40.7416 220.323 42.1403 221.977 43.5452C223.659 44.9757 224.909 46.758 226.52 48.2305C226.796 48.4812 227.157 48.1517 227.068 47.8411C225.854 43.6727 220.424 41.5379 217.389 38.9153C217.208 38.7602 216.995 39.0309 217.157 39.1951Z" fill="#272727"/>
<path fill-rule="evenodd" clip-rule="evenodd" d="M219.444 45.976C220.005 46.5096 220.569 47.0416 221.058 47.6431C221.515 48.2046 221.684 49.003 222.229 49.4706C222.362 49.5847 222.625 49.5498 222.686 49.369C223.223 47.8002 220.914 46.2294 219.868 45.4655C219.521 45.2139 219.133 45.6807 219.444 45.976Z" fill="#272727"/>
<path fill-rule="evenodd" clip-rule="evenodd" d="M217.332 47.8842C217.825 48.4558 218.246 49.0732 218.685 49.6866C219.077 50.2368 219.4 50.8239 219.948 51.2324C220.185 51.4106 220.51 51.1873 220.413 50.902C219.973 49.595 218.805 48.369 217.838 47.4152C217.557 47.1405 217.074 47.5865 217.332 47.8842Z" fill="#272727"/>
<path fill-rule="evenodd" clip-rule="evenodd" d="M241.297 146.877C244.024 146.696 246.132 148.306 247.497 150.522C248.824 152.68 248.734 155.196 249.061 157.604C249.102 157.909 249.524 158.005 249.662 157.71C250.839 155.167 249.84 152.089 248.518 149.794C246.942 147.056 244.25 146.105 241.277 146.66C241.141 146.685 241.153 146.885 241.297 146.877Z" fill="#272727"/>
<path fill-rule="evenodd" clip-rule="evenodd" d="M246.97 161.068C246.374 161.718 245.39 162.315 245.186 163.215C245.142 163.415 245.361 163.587 245.548 163.514C246.371 163.189 247.037 162.244 247.575 161.572C247.896 161.174 247.314 160.695 246.97 161.068Z" fill="#272727"/>
<path fill-rule="evenodd" clip-rule="evenodd" d="M231.397 154.446C231.259 155.733 231.328 157.994 232.682 158.673C232.872 158.767 233.1 158.601 233.08 158.393C233.02 157.794 232.685 157.229 232.493 156.66C232.262 155.96 232.167 155.214 232.166 154.48C232.166 154.042 231.443 154.013 231.397 154.446Z" fill="#272727"/>
<path fill-rule="evenodd" clip-rule="evenodd" d="M128.48 78.8627C134.606 80.7919 140.549 83.8349 146.849 85.149C154.254 86.6971 161.466 88.671 168.563 91.289C175.704 93.9239 183.26 94.425 190.692 95.7857C191.238 95.8867 191.087 96.7265 190.54 96.633C183.818 95.4774 176.847 95.1694 170.324 93.0556C162.821 90.6265 155.467 88.4142 147.718 86.8496C141.576 85.6093 135.897 82.861 129.986 80.8693C126.877 79.82 123.659 78.854 120.369 78.5873C117.617 78.3659 115.17 78.7567 112.585 79.1453C112.155 79.4823 111.69 79.7059 111.208 79.9373C110.046 80.4966 108.724 81.1316 107.747 86.8514C106.345 95.0637 111.247 97.4537 113.206 98.0722C119.409 88.8627 138.729 95.8629 158.625 103.071L163.189 104.716C181.501 111.291 197.725 110.799 201.88 110.536C201.96 109.157 201.983 107.741 201.952 106.294C201.763 97.6343 199.646 87.8517 196.338 78.1785C189.949 76.7204 183.153 76.7297 176.662 76.025C170.095 75.3113 163.424 74.8239 156.926 73.6173C146.781 71.7351 135.868 68.6545 128.362 61.2824C128.004 61.3616 127.616 61.278 127.314 61.0235C127.297 61.0067 121.091 55.5915 116.027 60.4024C112.966 63.3065 113.44 65.1876 114.049 67.613C114.53 69.5364 115.081 71.7366 114.573 74.8017C114.416 75.7623 114.214 76.5198 113.981 77.1294C118.742 76.2976 124.186 77.5118 128.48 78.8627Z" fill="#FDE3C0"/>
<path fill-rule="evenodd" clip-rule="evenodd" d="M130.266 69.4427C130.312 69.4654 130.365 69.4901 130.409 69.5143C133.218 70.9255 136.054 72.2044 138.939 73.4518C143.073 75.2082 149.305 77.9013 153.607 78.9658C153.885 79.0177 174.556 82.4642 174.637 82.4998C171.745 84.43 156.854 81.6499 153.304 81.1738C149.222 80.5968 141.795 77.581 137.877 75.9925C134.905 74.7738 131.985 73.5111 129.113 72.0701C129.063 72.0488 129.011 72.0193 128.965 71.9953C127.912 71.4599 126.998 70.9058 125.986 70.3249C125.257 69.852 124.543 69.3692 124.044 68.6412C123.736 68.1715 123.452 67.8823 122.976 67.5874C122.496 67.3173 122.102 67.1951 121.559 67.1183C118.245 66.9909 118.54 68.2707 118 66.7313C116.41 64.9125 120.481 64.5958 121.783 64.519C122.735 64.577 123.446 64.7648 124.301 65.1968C125.222 65.7013 125.807 66.2523 126.402 67.1175C126.488 67.1954 127.471 67.9602 127.512 67.9222C128.41 68.4729 129.327 68.9606 130.266 69.4427Z" fill="#FDE3C0"/>
<path fill-rule="evenodd" clip-rule="evenodd" d="M232.596 148.962C233.141 148.173 233.74 147.61 234.501 147.029C235.313 146.443 236.06 146.018 237.014 145.704C237.383 145.531 239.317 145.109 239.383 145.831C239.363 146.261 238.256 147.014 237.92 147.294C237.333 147.832 236.788 148.358 236.248 148.95C235.877 149.28 235.268 150.122 234.972 150.561C234.958 150.581 234.936 150.621 234.922 150.637C234.786 150.795 234.664 151.083 234.526 151.261C234.197 151.73 233.719 151.608 233.178 151.602C232.235 151.651 231.733 151.834 231.974 150.327C231.983 149.967 232.369 149.392 232.516 149.081C232.532 149.049 232.574 148.991 232.596 148.962Z" fill="white"/>
<path fill-rule="evenodd" clip-rule="evenodd" d="M153.406 38.9153C130.385 50.4584 129.321 60.1949 129.312 60.2607C129.293 60.3801 129.259 60.4959 129.209 60.6071C138.477 67.6373 149.455 70.7747 160.986 72.7109C167.159 73.7473 173.37 74.3598 179.587 75.0674C179.814 75.0933 180.042 75.118 180.271 75.1413C179.327 72.7133 178.128 71.3577 177.052 70.6014C176.098 70.5951 166.957 69.5499 166 69.4998C158.718 69.1244 156.387 61.0344 149.855 58.0279C162.4 61.787 149.833 57.8914 149.906 57.9141C157.848 60.5287 165.269 63.3379 173.759 63.2172C174.131 63.2128 178.003 69.1996 178.38 69.1899C179.129 68.7135 179.674 67.893 179.655 66.5059C179.595 62.1823 178.483 49.9617 165.9 39.7853C158.749 34.0014 154.204 42.2219 153.406 38.9153Z" fill="#B8182F"/>
</g>
<path d="M202 110.5V106L192 110.5C192 110.5 202 111 202 110.5Z" fill="#FDE3C0"/>
<path d="M157.5 77.5C157.1 77.5 157.667 75.5 158 74.5H159.5C160 74.5 161 75.5 162 75.5C163 75.5 165 76 166.5 76C168 76 169 76.5 170 77C171 77.5 170.5 78 170 78.5C169.5 79 168.5 79 167.5 79.5C166.5 80 166 79.5 165 79C164 78.5 161.5 78.5 160 78.5C158.5 78.5 158 77.5 157.5 77.5Z" fill="#FDE3C0"/>
<path d="M120 60C119.667 60.3333 119 61.1 119 61.5C119 62.3333 119.2 64.1 120 64.5C121 65 122.5 66 123 66.5C123.5 67 130 69.5 131.5 70.5C132.7 71.3 133.667 71.1667 134 71L140.5 69.5L133.5 65.5C133 65.5 132.5 65 132 64.5C131.5 64 131 64.5 131 64C131 63.5 130 63.5 129.5 63C129 62.5 129 62.5 128 62C127.2 61.6 127.333 61.5 127.5 61.5C127.167 61.1667 126.4 60.5 126 60.5H125C124.667 60.3333 123.8 60 123 60H121H120Z" fill="#FDE3C0"/>
</svg>
