<svg xmlns="http://www.w3.org/2000/svg" width="256" height="256" viewBox="0 0 256 256" fill="none"><g clip-path="url(#clip0_123_378)"><path fill-rule="evenodd" clip-rule="evenodd" d="M70.1504 207.392C91.8146 224.992 116.842 235.022 143.533 235.022C183.225 235.022 219.257 212.775 245.995 176.542C234.706 161.247 221.764 148.436 207.575 138.751L184.794 150.124C189.69 157.741 192.542 166.809 192.542 176.542C192.542 203.577 170.604 225.491 143.533 225.491C122.499 225.491 104.566 212.252 97.6139 193.666L70.1504 207.38V207.392ZM126.67 179.168C127.216 182.721 128.88 186.025 131.459 188.604C134.656 191.8 139.005 193.595 143.533 193.583C152.957 193.583 160.598 185.953 160.598 176.542C160.598 171.919 158.756 167.724 155.761 164.646L126.682 179.168H126.67Z" fill="#2BAD72"/><path d="M76.3528 176.16L242.405 96.3367L205.91 20.4229L187.062 87.507L164.412 40.3758L145.552 107.46L122.902 60.3287L104.042 127.413L81.3916 80.2816L62.5319 147.366L39.8814 100.235L9.4707 208.318L50.9809 188.365L76.3528 176.172V176.16Z" fill="#2BAD72"/></g><defs><clipPath id="clip0_123_378"><rect width="236.512" height="214.598" fill="white" transform="translate(9.4707 20.4229)"/></clipPath></defs></svg>