<svg width="32" height="32" viewBox="0 0 32 32" fill="none" xmlns="http://www.w3.org/2000/svg">
<path d="M24.12 15.6934L26.08 24.1334L18.6666 19.6534L11.2533 24.1334L13.2 15.6934L6.66663 10L15.2933 9.28004L18.6666 1.33337L22.04 9.28004L30.6666 10L24.12 15.6934ZM2.66663 16.5734C2.91996 16.5734 3.1733 16.4934 3.39996 16.3467L7.66663 13.5334L5.5733 11.72L1.9333 14.12C1.31863 14.52 1.14796 15.3334 1.54663 16C1.8133 16.36 2.23996 16.5734 2.66663 16.5734ZM1.54663 28.7334C1.8133 29.12 2.23996 29.3334 2.66663 29.3334C2.91996 29.3334 3.1733 29.2667 3.39996 29.12L8.87996 25.5067L9.3333 23.68L9.74663 21.7467L1.9333 26.88C1.31863 27.2934 1.14796 28.12 1.54663 28.7334ZM1.9333 20.5067C1.63884 20.7001 1.43289 21.0022 1.36043 21.347C1.28798 21.6917 1.35492 22.0511 1.54663 22.3467C1.8133 22.7467 2.23996 22.9467 2.66663 22.9467C2.91996 22.9467 3.1733 22.88 3.39996 22.7334L10.6266 18L10.9866 16.4134L9.75996 15.3334L1.9333 20.5067Z" fill="#31D99C"/>
</svg>
