<svg width="32" height="32" viewBox="0 0 32 32" fill="none" xmlns="http://www.w3.org/2000/svg">
<path d="M19 16H13V12.8889H19M19 22.2222H13V19.1111H19M28 9.77778H23.785C23.1084 8.56092 22.1751 7.5186 21.055 6.72889L23.5 4.19333L21.385 2L18.13 5.37556C16.7352 5.02466 15.2798 5.02466 13.885 5.37556L10.615 2L8.5 4.19333L10.93 6.72889C9.82 7.52222 8.89 8.56444 8.215 9.77778H4V12.8889H7.135C7.06 13.4022 7 13.9156 7 14.4444V16H4V19.1111H7V20.6667C7 21.1956 7.06 21.7089 7.135 22.2222H4V25.3333H8.215C9.775 28.1178 12.67 30 16 30C19.33 30 22.225 28.1178 23.785 25.3333H28V22.2222H24.865C24.94 21.7089 25 21.1956 25 20.6667V19.1111H28V16H25V14.4444C25 13.9156 24.94 13.4022 24.865 12.8889H28V9.77778Z" fill="#31D99C"/>
</svg>
