<svg width="32" height="32" viewBox="0 0 32 32" fill="none" xmlns="http://www.w3.org/2000/svg">
<path d="M21.4133 17.4533L28.92 24.9066L24.4933 29.28L17.04 21.8266V20.6L20.1867 17.4533H21.4133ZM22.6266 14.08L21.3333 12.8L14.9467 19.2V21.8266L7.43998 29.3333L3.06665 24.9066L10.52 17.4533H13.1466L14.1867 16.4133L9.06665 11.28H7.33332L3.58665 7.49329L7.07998 3.99996L10.8133 7.73329V9.47996L16 14.6L19.5467 11.0533L18.2667 9.70663L20 7.95996H16.4533L15.5866 7.09329L20 2.66663L20.88 3.54663V7.09329L22.6266 5.33329L27 9.70663C28.4533 11.1733 28.4533 13.56 27 15.0133L24.3733 12.3333L22.6266 14.08Z" fill="#31D99C"/>
</svg>
