<svg width="536" height="87" viewBox="0 0 536 87" fill="none" xmlns="http://www.w3.org/2000/svg">
<path d="M0 0C12.0562 22.4186 33.2197 29.0656 59.0573 29.5769C74.3031 29.8915 102.708 28.6526 102.708 36.6564C102.708 42.674 85.6973 58.2884 85.6973 62.1429C85.6973 62.1429 101.124 49.3996 109.77 41.8481C118.415 34.2966 123.25 29.7932 123.25 25.3291C123.25 16.2437 87.3823 17.9349 58.4154 17.9349C29.4484 17.9349 13.6209 12.5072 0 0ZM30.8125 66.8626C25.1355 66.8626 20.5417 71.366 20.5417 76.9313C20.5417 82.4966 25.1355 87 30.8125 87C36.4895 87 41.0833 82.4966 41.0833 76.9313C41.0833 71.366 36.4895 66.8626 30.8125 66.8626ZM71.8958 66.8626C66.2188 66.8626 61.625 71.366 61.625 76.9313C61.625 82.4966 66.2188 87 71.8958 87C77.5729 87 82.1667 82.4966 82.1667 76.9313C82.1667 71.366 77.5729 66.8626 71.8958 66.8626Z" fill="#00BA78"/>
<path d="M224.095 70H211.915L212.205 30.6325L195.748 70H184.075L167.473 30.6325C167.666 55.5725 167.763 68.695 167.763 70H155.583V18.815H174.143L190.02 56.37L205.753 18.815H224.095V70ZM293.37 70H279.015L274.665 60.3575H248.42L244.07 70H230.077L254.8 18.815H268.647L293.37 70ZM270.532 51.295L261.615 31.285L252.552 51.295H270.532ZM355.285 70H340.132L326.502 49.41H311.857V70H299.097V18.815H334.332C337.957 18.815 340.785 19.1292 342.815 19.7575C346.053 20.7242 348.567 22.5125 350.355 25.1225C352.143 27.6842 353.037 30.6808 353.037 34.1125C353.037 36.5775 352.578 38.825 351.66 40.855C350.597 43.2717 349.074 45.0358 347.092 46.1475C345.159 47.2592 342.694 48.0808 339.697 48.6125L355.285 70ZM311.857 27.805V40.3475H332.955C337.692 40.3475 340.06 38.3175 340.06 34.2575C340.06 29.9558 337.522 27.805 332.447 27.805H311.857ZM421.659 70H404.477L384.467 47.96L376.709 54.63V70H363.949V18.815H376.709V41.2175L401.649 18.815H418.179L393.239 40.42L421.659 70ZM475.055 70H425.9V18.815H473.605V28.0225H438.732V39.55H472.445V48.685H438.732V60.865H475.055V70ZM529.429 28.1675H510.507V70H497.602V28.1675H478.607V18.815H529.429V28.1675Z" fill="#00BA78"/>
</svg>