<svg width="337" height="336" viewBox="0 0 337 336" fill="none" xmlns="http://www.w3.org/2000/svg">
<rect width="336.568" height="336" fill="#1E1E1E"/>
<path d="M101.799 111.485L131.642 81.6419C150.88 62.4041 160.499 52.7852 172.413 52.4391C172.993 52.4222 173.574 52.4222 174.155 52.4391C186.069 52.7852 195.688 62.4041 214.926 81.6419L244.769 111.485C251.285 118.001 251.285 128.566 244.769 135.082C238.253 141.598 227.688 141.598 221.172 135.082L203.127 117.037C195.095 109.005 191.079 104.989 186.76 102.818C178.281 98.5548 168.286 98.5548 159.808 102.818C155.489 104.989 151.473 109.005 143.44 117.037L125.396 135.082C118.879 141.598 108.315 141.598 101.799 135.082C95.2824 128.566 95.2824 118.001 101.799 111.485Z" fill="#2BAD72"/>
<path d="M101.799 172.56L152.071 122.288C163.786 110.572 182.781 110.572 194.497 122.288L244.769 172.56C251.285 179.076 251.285 189.641 244.769 196.157C238.253 202.673 227.688 202.673 221.172 196.157L194.497 169.482C182.781 157.766 163.786 157.766 152.071 169.482L125.396 196.157C118.879 202.673 108.315 202.673 101.799 196.157C95.2824 189.641 95.2824 179.076 101.799 172.56Z" fill="#2BAD72"/>
<path d="M119.844 242.56C119.844 272.074 143.77 296 173.284 296C202.798 296 226.724 272.074 226.724 242.56C226.724 213.045 202.798 189.119 173.284 189.119C143.77 189.119 119.844 213.045 119.844 242.56Z" fill="#2BAD72"/>
</svg>
