<svg width="805" height="256" viewBox="0 0 805 256" fill="none" xmlns="http://www.w3.org/2000/svg">
<path d="M47.5792 91.6959L66.75 72.5251L66.75 72.5251C71.8958 67.3793 74.4687 64.8063 77.0491 63.1143C87.0383 56.5639 99.9617 56.5639 109.951 63.1143C112.531 64.8063 115.104 67.3792 120.25 72.525L120.25 72.5251L139.421 91.6959C143.607 95.8818 143.607 102.668 139.421 106.854C135.235 111.04 128.448 111.04 124.262 106.854L112.671 95.2626C102.083 84.6748 84.9169 84.6748 74.3292 95.2626L62.7375 106.854C58.5516 111.04 51.765 111.04 47.5792 106.854C43.3933 102.668 43.3933 95.8818 47.5792 91.6959Z" fill="white"/>
<path d="M47.5792 130.929L72.2868 106.222C84.0025 94.5059 102.997 94.5059 114.713 106.222L139.421 130.929C143.607 135.115 143.607 141.902 139.421 146.088C135.235 150.273 128.448 150.273 124.262 146.088L112.671 134.496C102.083 123.908 84.9169 123.908 74.3292 134.496L62.7375 146.088C58.5516 150.273 51.765 150.273 47.5792 146.088C43.3933 141.902 43.3933 135.115 47.5792 130.929Z" fill="white"/>
<path d="M59.1709 175.896C59.1709 194.855 74.5406 210.225 93.5 210.225C112.459 210.225 127.829 194.855 127.829 175.896C127.829 156.936 112.459 141.567 93.5 141.567C74.5406 141.567 59.1709 156.936 59.1709 175.896Z" fill="white"/>
<path d="M176.078 165.5V96.9688H190.609V153.5H218.406V165.5H176.078ZM275.031 165.5H224.031V156.078L256.891 108.969H224.922V96.9688H274.141V106.344L241.328 153.5H275.031V165.5ZM312.391 165.5H297.859V109.062H279.25V96.9688H331V109.062H312.391V165.5ZM422.266 96.9688V141.312C422.266 146.031 421.219 150.297 419.125 154.109C417.062 157.891 413.922 160.891 409.703 163.109C405.516 165.328 400.234 166.438 393.859 166.438C384.797 166.438 377.891 164.125 373.141 159.5C368.391 154.875 366.016 148.75 366.016 141.125V96.9688H380.5V138.922C380.5 144.578 381.656 148.547 383.969 150.828C386.281 153.109 389.703 154.25 394.234 154.25C397.422 154.25 400 153.703 401.969 152.609C403.969 151.516 405.438 149.828 406.375 147.547C407.312 145.266 407.781 142.359 407.781 138.828V96.9688H422.266ZM467.078 112.109C472.984 112.109 477.75 114.406 481.375 119C485.031 123.594 486.859 130.328 486.859 139.203C486.859 145.141 486 150.141 484.281 154.203C482.562 158.234 480.188 161.281 477.156 163.344C474.125 165.406 470.641 166.438 466.703 166.438C464.172 166.438 462 166.125 460.188 165.5C458.375 164.844 456.828 164.016 455.547 163.016C454.266 161.984 453.156 160.891 452.219 159.734H451.469C451.719 160.984 451.906 162.266 452.031 163.578C452.156 164.891 452.219 166.172 452.219 167.422V188.562H437.922V113.094H449.547L451.562 119.891H452.219C453.156 118.484 454.297 117.188 455.641 116C456.984 114.812 458.594 113.875 460.469 113.188C462.375 112.469 464.578 112.109 467.078 112.109ZM462.484 123.547C459.984 123.547 458 124.062 456.531 125.094C455.062 126.125 453.984 127.672 453.297 129.734C452.641 131.797 452.281 134.406 452.219 137.562V139.109C452.219 142.484 452.531 145.344 453.156 147.688C453.812 150.031 454.891 151.812 456.391 153.031C457.922 154.25 460.016 154.859 462.672 154.859C464.859 154.859 466.656 154.25 468.062 153.031C469.469 151.812 470.516 150.031 471.203 147.688C471.922 145.312 472.281 142.422 472.281 139.016C472.281 133.891 471.484 130.031 469.891 127.438C468.297 124.844 465.828 123.547 462.484 123.547ZM514 188.562C506.688 188.562 501.094 187.281 497.219 184.719C493.375 182.188 491.453 178.625 491.453 174.031C491.453 170.875 492.438 168.234 494.406 166.109C496.375 163.984 499.266 162.469 503.078 161.562C501.609 160.938 500.328 159.922 499.234 158.516C498.141 157.078 497.594 155.562 497.594 153.969C497.594 151.969 498.172 150.312 499.328 149C500.484 147.656 502.156 146.344 504.344 145.062C501.594 143.875 499.406 141.969 497.781 139.344C496.188 136.719 495.391 133.625 495.391 130.062C495.391 126.25 496.219 123.016 497.875 120.359C499.562 117.672 502 115.625 505.188 114.219C508.406 112.812 512.312 112.109 516.906 112.109C517.875 112.109 519 112.172 520.281 112.297C521.562 112.422 522.734 112.562 523.797 112.719C524.891 112.875 525.625 113 526 113.094H544.281V120.359L536.078 122.469C536.828 123.625 537.391 124.859 537.766 126.172C538.141 127.484 538.328 128.875 538.328 130.344C538.328 135.969 536.359 140.359 532.422 143.516C528.516 146.641 523.078 148.203 516.109 148.203C514.453 148.109 512.891 147.984 511.422 147.828C510.703 148.391 510.156 148.984 509.781 149.609C509.406 150.234 509.219 150.891 509.219 151.578C509.219 152.266 509.5 152.844 510.062 153.312C510.656 153.75 511.531 154.094 512.688 154.344C513.875 154.562 515.344 154.672 517.094 154.672H526C531.75 154.672 536.125 155.906 539.125 158.375C542.156 160.844 543.672 164.469 543.672 169.25C543.672 175.375 541.109 180.125 535.984 183.5C530.891 186.875 523.562 188.562 514 188.562ZM514.609 179.234C518.016 179.234 520.938 178.906 523.375 178.25C525.844 177.625 527.734 176.719 529.047 175.531C530.359 174.375 531.016 172.984 531.016 171.359C531.016 170.047 530.625 169 529.844 168.219C529.094 167.469 527.938 166.938 526.375 166.625C524.844 166.312 522.875 166.156 520.469 166.156H513.062C511.312 166.156 509.734 166.438 508.328 167C506.953 167.562 505.859 168.344 505.047 169.344C504.234 170.375 503.828 171.562 503.828 172.906C503.828 174.875 504.766 176.422 506.641 177.547C508.547 178.672 511.203 179.234 514.609 179.234ZM516.906 139.484C519.594 139.484 521.562 138.656 522.812 137C524.062 135.344 524.688 133.094 524.688 130.25C524.688 127.094 524.031 124.734 522.719 123.172C521.438 121.578 519.5 120.781 516.906 120.781C514.281 120.781 512.312 121.578 511 123.172C509.688 124.734 509.031 127.094 509.031 130.25C509.031 133.094 509.672 135.344 510.953 137C512.266 138.656 514.25 139.484 516.906 139.484ZM582.203 112.109C582.922 112.109 583.75 112.156 584.688 112.25C585.656 112.312 586.438 112.406 587.031 112.531L585.953 125.938C585.484 125.781 584.812 125.672 583.938 125.609C583.094 125.516 582.359 125.469 581.734 125.469C579.891 125.469 578.094 125.703 576.344 126.172C574.625 126.641 573.078 127.406 571.703 128.469C570.328 129.5 569.234 130.875 568.422 132.594C567.641 134.281 567.25 136.359 567.25 138.828V165.5H552.953V113.094H563.781L565.891 121.906H566.594C567.625 120.125 568.906 118.5 570.438 117.031C572 115.531 573.766 114.344 575.734 113.469C577.734 112.562 579.891 112.109 582.203 112.109ZM618.016 112.016C625.047 112.016 630.438 113.547 634.188 116.609C637.938 119.672 639.812 124.328 639.812 130.578V165.5H629.828L627.062 158.375H626.688C625.188 160.25 623.656 161.781 622.094 162.969C620.531 164.156 618.734 165.031 616.703 165.594C614.672 166.156 612.203 166.438 609.297 166.438C606.203 166.438 603.422 165.844 600.953 164.656C598.516 163.469 596.594 161.656 595.188 159.219C593.781 156.75 593.078 153.625 593.078 149.844C593.078 144.281 595.031 140.188 598.938 137.562C602.844 134.906 608.703 133.438 616.516 133.156L625.609 132.875V130.578C625.609 127.828 624.891 125.812 623.453 124.531C622.016 123.25 620.016 122.609 617.453 122.609C614.922 122.609 612.438 122.969 610 123.688C607.562 124.406 605.125 125.312 602.688 126.406L597.953 116.75C600.734 115.281 603.844 114.125 607.281 113.281C610.75 112.438 614.328 112.016 618.016 112.016ZM625.609 141.219L620.078 141.406C615.453 141.531 612.234 142.359 610.422 143.891C608.641 145.422 607.75 147.438 607.75 149.938C607.75 152.125 608.391 153.688 609.672 154.625C610.953 155.531 612.625 155.984 614.688 155.984C617.75 155.984 620.328 155.078 622.422 153.266C624.547 151.453 625.609 148.875 625.609 145.531V141.219ZM671.172 166.438C665.328 166.438 660.562 164.156 656.875 159.594C653.219 155 651.391 148.266 651.391 139.391C651.391 130.422 653.25 123.641 656.969 119.047C660.688 114.422 665.547 112.109 671.547 112.109C674.047 112.109 676.25 112.453 678.156 113.141C680.062 113.828 681.703 114.75 683.078 115.906C684.484 117.062 685.672 118.359 686.641 119.797H687.109C686.922 118.797 686.688 117.328 686.406 115.391C686.156 113.422 686.031 111.406 686.031 109.344V92.5625H700.375V165.5H689.406L686.641 158.703H686.031C685.125 160.141 683.984 161.453 682.609 162.641C681.266 163.797 679.656 164.719 677.781 165.406C675.906 166.094 673.703 166.438 671.172 166.438ZM676.188 155.047C680.094 155.047 682.844 153.891 684.438 151.578C686.062 149.234 686.922 145.719 687.016 141.031V139.484C687.016 134.391 686.234 130.5 684.672 127.812C683.109 125.094 680.203 123.734 675.953 123.734C672.797 123.734 670.328 125.094 668.547 127.812C666.766 130.531 665.875 134.453 665.875 139.578C665.875 144.703 666.766 148.562 668.547 151.156C670.359 153.75 672.906 155.047 676.188 155.047ZM736.938 112.109C741.781 112.109 745.953 113.047 749.453 114.922C752.953 116.766 755.656 119.453 757.562 122.984C759.469 126.516 760.422 130.828 760.422 135.922V142.859H726.625C726.781 146.891 727.984 150.062 730.234 152.375C732.516 154.656 735.672 155.797 739.703 155.797C743.047 155.797 746.109 155.453 748.891 154.766C751.672 154.078 754.531 153.047 757.469 151.672V162.734C754.875 164.016 752.156 164.953 749.312 165.547C746.5 166.141 743.078 166.438 739.047 166.438C733.797 166.438 729.141 165.469 725.078 163.531C721.047 161.594 717.875 158.641 715.562 154.672C713.281 150.703 712.141 145.703 712.141 139.672C712.141 133.547 713.172 128.453 715.234 124.391C717.328 120.297 720.234 117.234 723.953 115.203C727.672 113.141 732 112.109 736.938 112.109ZM737.031 122.281C734.25 122.281 731.938 123.172 730.094 124.953C728.281 126.734 727.234 129.531 726.953 133.344H747.016C746.984 131.219 746.594 129.328 745.844 127.672C745.125 126.016 744.031 124.703 742.562 123.734C741.125 122.766 739.281 122.281 737.031 122.281Z" fill="white"/>
</svg>
